<?xml version="1.0" standalone="no"?>
<!DOCTYPE svg PUBLIC "-//W3C//DTD SVG 20010904//EN"
 "http://www.w3.org/TR/2001/REC-SVG-20010904/DTD/svg10.dtd">
<svg version="1.0" xmlns="http://www.w3.org/2000/svg"
 width="700.000000pt" height="700.000000pt" viewBox="0 0 700.000000 700.000000"
 preserveAspectRatio="xMidYMid meet">
<metadata>
Created by potrace 1.11, written by Peter Selinger 2001-2013
</metadata>
<g transform="translate(0.000000,700.000000) scale(0.100000,-0.100000)"
fill="#000000" stroke="none">
<path d="M3430 6585 c-15 -19 -96 -21 -103 -2 -3 9 -9 9 -24 0 -11 -6 -48 -12
-83 -12 -35 0 -67 -4 -73 -10 -14 -14 -20 -152 -9 -195 7 -25 8 -57 1 -94 l-9
-57 34 -28 c22 -18 33 -34 29 -43 -5 -13 1 -14 29 -9 25 5 38 2 47 -9 18 -22
133 -22 155 -1 16 16 86 21 86 5 0 -5 9 -14 21 -20 17 -10 21 -8 26 9 5 21 23
29 23 11 0 -15 30 -12 31 3 0 6 4 2 9 -10 5 -13 17 -23 26 -23 14 0 16 8 11
46 -2 26 -10 50 -17 54 -6 4 -15 24 -20 46 -10 44 -16 192 -8 200 9 8 -3 87
-15 102 -9 11 -7 13 9 10 13 -2 20 3 22 20 3 21 1 22 -91 22 -72 0 -98 -4
-107 -15z m125 -425 c3 -5 -3 -10 -14 -10 -12 0 -21 5 -21 10 0 6 6 10 14 10
8 0 18 -4 21 -10z m-152 -7 c-13 -2 -33 -2 -45 0 -13 2 -3 4 22 4 25 0 35 -2
23 -4z"/>
<path d="M3974 6535 c-5 -12 -10 -13 -20 -4 -19 16 -34 2 -34 -32 0 -18 -4
-28 -10 -24 -5 3 -10 20 -10 36 0 47 -33 35 -42 -16 -12 -64 0 -115 28 -125
29 -12 31 -42 7 -110 -15 -43 -16 -52 -3 -77 8 -15 21 -32 27 -36 7 -4 13 -17
13 -28 0 -16 6 -19 33 -19 17 1 54 -4 81 -9 26 -6 59 -8 71 -5 17 4 26 0 35
-15 12 -24 40 -26 104 -10 34 8 46 17 60 47 10 20 22 45 27 54 5 10 9 26 9 37
0 10 7 24 15 31 8 7 17 28 21 49 3 20 17 53 30 73 28 45 30 67 7 74 -10 4 -40
17 -68 29 -62 28 -158 54 -250 66 -38 5 -78 14 -87 19 -25 14 -38 12 -44 -5z
m-37 -187 c-3 -8 -6 -5 -6 6 -1 11 2 17 5 13 3 -3 4 -12 1 -19z"/>
<path d="M2610 6435 c0 -8 5 -15 10 -15 18 0 11 -20 -7 -20 -10 0 -45 -14 -78
-30 -33 -17 -64 -30 -70 -30 -5 0 -23 -10 -38 -23 -27 -21 -29 -26 -30 -115
-1 -60 3 -96 11 -104 7 -7 12 -23 12 -36 0 -14 7 -26 18 -29 21 -5 45 -54 36
-76 -3 -10 2 -17 15 -22 18 -5 19 -10 10 -26 -6 -12 -8 -27 -5 -35 11 -28 146
-3 146 26 0 6 17 10 38 10 50 0 71 14 46 29 -15 8 -16 10 -4 11 9 0 22 -6 28
-12 17 -17 32 5 32 45 0 41 20 56 84 63 54 7 68 15 45 29 -6 5 -8 26 -4 60 6
46 4 56 -14 74 -12 12 -21 29 -21 39 0 9 -11 39 -25 66 -14 27 -25 55 -25 61
0 6 -9 21 -20 33 -17 17 -32 22 -75 22 -30 0 -57 5 -60 10 -10 16 -55 12 -55
-5z m-30 -500 c0 -8 -4 -15 -9 -15 -5 0 -11 7 -15 15 -3 9 0 15 9 15 8 0 15
-7 15 -15z"/>
<path d="M3060 6448 c0 -2 7 -21 15 -43 9 -26 14 -32 15 -19 0 12 7 27 15 34
13 11 13 15 3 21 -12 8 -48 13 -48 7z"/>
<path d="M4742 6292 c6 -22 -14 -42 -41 -42 -45 0 -103 -48 -71 -58 23 -8 38
-32 32 -54 l-5 -22 -8 22 c-10 26 -27 29 -36 6 -3 -9 -17 -28 -30 -43 -29 -31
-27 -77 6 -113 13 -14 17 -24 11 -28 -7 -5 -6 -11 3 -19 8 -6 13 -20 10 -30
-7 -26 34 -49 87 -49 102 -1 124 -3 113 -10 -13 -8 -15 -82 -3 -82 5 0 10 -15
12 -32 2 -25 8 -33 23 -33 17 0 19 6 17 33 -3 27 0 32 17 32 18 0 20 -4 15
-25 -8 -31 -4 -31 51 -1 l44 25 32 -37 32 -36 16 24 c9 13 26 47 38 76 21 49
21 54 7 83 -9 18 -13 38 -10 46 8 21 35 7 42 -22 4 -13 11 -22 17 -20 7 2 12
45 14 111 3 94 1 110 -14 122 -10 7 -24 14 -30 14 -7 0 -22 9 -34 21 -11 11
-27 18 -35 15 -21 -8 -63 14 -57 30 3 9 -2 14 -15 14 -11 0 -22 6 -25 14 -3 7
-26 16 -53 19 -32 3 -54 12 -65 26 -10 12 -29 21 -43 21 -14 0 -26 5 -26 10 0
6 -10 10 -21 10 -16 0 -20 -5 -17 -18z m-92 -202 c0 -5 -4 -10 -10 -10 -5 0
-10 5 -10 10 0 6 5 10 10 10 6 0 10 -4 10 -10z"/>
<path d="M1612 6233 l-23 -4 25 -20 c30 -24 38 -24 53 0 10 16 9 20 -3 25 -9
3 -19 5 -22 5 -4 -1 -17 -4 -30 -6z"/>
<path d="M1486 6113 c-3 -4 -6 -19 -6 -35 0 -20 5 -28 18 -28 35 0 41 14 17
42 -13 15 -26 24 -29 21z"/>
<path d="M2000 6062 c-27 -3 -53 -14 -144 -57 -42 -21 -63 -38 -72 -59 -17
-36 -27 -54 -71 -117 -17 -26 -28 -51 -23 -55 11 -12 47 -74 60 -101 5 -13 16
-23 23 -23 8 0 31 -16 51 -35 21 -19 44 -35 52 -35 8 0 14 -3 14 -8 0 -4 14
-13 31 -21 26 -11 33 -11 40 0 4 7 18 14 31 14 14 0 24 7 26 19 4 20 80 94
136 133 80 55 90 106 33 158 -39 36 -57 71 -57 111 0 13 -5 24 -11 24 -6 0 -8
9 -4 20 3 11 3 20 -2 20 -4 1 -26 4 -48 8 -22 4 -51 6 -65 4z"/>
<path d="M2886 5938 c-34 -48 -15 -77 52 -78 19 0 22 5 22 38 0 61 -43 84 -74
40z"/>
<path d="M4507 5913 c-25 -24 18 -53 50 -34 10 6 12 11 6 11 -7 0 -13 7 -13
15 0 15 -31 21 -43 8z"/>
<path d="M2681 5891 c-7 -5 -10 -14 -7 -20 9 -14 66 -14 86 -1 13 9 13 11 0
20 -19 12 -60 13 -79 1z"/>
<path d="M3085 5881 c-22 -3 -35 -9 -30 -12 16 -10 90 -5 88 6 -2 12 -10 13
-58 6z"/>
<path d="M5162 5850 c0 -14 2 -19 5 -12 2 6 2 18 0 25 -3 6 -5 1 -5 -13z"/>
<path d="M5353 5856 c-4 -7 -18 -18 -29 -24 -12 -6 -24 -24 -27 -40 -3 -17
-18 -47 -32 -67 -14 -21 -25 -41 -25 -45 0 -3 -10 -6 -22 -6 -15 1 -25 -7 -32
-26 -13 -36 3 -84 28 -82 27 3 15 -29 -14 -36 -37 -9 -32 -34 8 -38 19 -2 31
-8 30 -15 -5 -22 42 -77 65 -77 13 0 34 -14 51 -34 16 -19 41 -38 57 -41 15
-4 33 -13 40 -21 13 -16 70 -19 97 -5 28 14 64 28 112 42 69 21 84 40 81 99
l-2 50 55 0 c53 0 56 1 56 24 0 14 -5 28 -11 31 -7 5 -3 14 10 27 22 20 19 43
-4 34 -8 -3 -15 6 -19 25 -4 20 -11 29 -25 29 -10 0 -22 7 -25 15 -3 9 -14 15
-23 13 -14 -2 -18 4 -18 32 0 25 -5 36 -17 38 -13 2 -18 -3 -18 -20 0 -18 -2
-20 -9 -8 -6 8 -7 18 -4 22 8 13 -17 38 -38 38 -19 0 -23 -9 -19 -45 1 -17 -5
-14 -37 16 -21 20 -48 40 -60 44 -13 3 -23 11 -23 16 0 5 -11 9 -25 9 -14 0
-25 5 -25 10 0 6 -9 10 -19 10 -11 0 -23 -4 -26 -10 -3 -5 -12 -10 -18 -10 -8
0 -7 3 2 9 7 5 10 14 7 20 -10 15 -43 14 -53 -3z m-56 -392 c-3 -3 -12 -4 -19
-1 -8 3 -5 6 6 6 11 1 17 -2 13 -5z"/>
<path d="M3268 5853 c12 -2 30 -2 40 0 9 3 -1 5 -23 4 -22 0 -30 -2 -17 -4z"/>
<path d="M5775 5849 c-10 -16 4 -61 18 -56 19 6 22 67 3 67 -8 0 -18 -5 -21
-11z"/>
<path d="M5882 5767 c-23 -40 -26 -63 -16 -116 9 -42 18 -39 37 12 12 30 14
56 9 92 l-7 50 -23 -38z"/>
<path d="M3211 5759 c-35 -4 -66 -10 -68 -13 -11 -11 10 -26 38 -26 16 0 29
-4 29 -10 0 -5 25 -10 55 -10 50 0 55 2 61 24 12 48 3 50 -115 35z"/>
<path d="M5113 5764 c-19 -8 -16 -28 8 -58 17 -22 24 -24 36 -15 21 18 13 74
-12 76 -11 1 -26 -1 -32 -3z"/>
<path d="M5777 5736 c-7 -17 18 -42 27 -27 7 11 -3 41 -14 41 -4 0 -10 -6 -13
-14z"/>
<path d="M2782 5667 c-32 -34 -29 -57 7 -57 16 0 34 7 41 15 7 9 22 12 40 9
17 -4 32 -1 41 9 16 17 49 11 49 -9 0 -10 -13 -14 -44 -14 -60 0 -80 -8 -65
-26 6 -8 22 -14 36 -14 14 0 22 -4 18 -10 -4 -6 -21 -8 -40 -4 -44 8 -65 -4
-40 -23 17 -12 17 -13 2 -13 -9 0 -17 -4 -17 -10 0 -5 -5 -10 -11 -10 -8 0 -9
4 0 13 13 17 5 27 -22 27 -14 0 -18 -5 -14 -20 4 -16 0 -20 -22 -20 -14 0 -42
-9 -61 -19 -34 -19 -35 -19 -67 1 l-33 20 -45 -37 c-25 -21 -45 -44 -45 -51 0
-8 -4 -14 -10 -14 -14 0 -13 -27 2 -32 6 -2 8 -10 4 -16 -10 -16 -26 -15 -26
2 0 8 -5 16 -11 18 -8 3 -7 13 3 33 11 21 13 37 7 53 -11 30 -33 23 -37 -11
-2 -15 -7 -27 -12 -27 -4 0 -11 -11 -14 -25 -5 -18 -13 -25 -31 -25 -21 0 -26
-6 -31 -40 -7 -40 -20 -50 -41 -29 -6 6 -25 9 -43 7 -31 -3 -32 -5 -35 -48 -1
-25 2 -53 7 -64 7 -13 6 -21 -2 -26 -6 -4 -11 -13 -10 -21 4 -28 0 -38 -14
-33 -8 3 -29 -11 -49 -31 l-36 -37 -3 34 c-3 29 -6 33 -33 33 -37 0 -55 -12
-55 -36 0 -30 22 -34 43 -8 l20 24 -8 -25 c-4 -14 -11 -29 -16 -34 -5 -6 -9
-18 -9 -28 0 -10 -4 -18 -10 -18 -5 0 -10 7 -10 15 0 8 -4 15 -10 15 -5 0 -10
-7 -10 -15 0 -9 -7 -18 -15 -21 -17 -7 -20 -40 -5 -49 24 -15 9 -51 -17 -42
-4 1 -6 12 -5 25 4 26 -28 31 -48 7 -7 -8 -16 -13 -20 -10 -5 3 -15 2 -24 -1
-22 -8 -12 -38 25 -77 22 -23 26 -33 17 -39 -24 -14 -37 -8 -40 20 -2 16 -9
27 -18 27 -11 0 -15 -11 -14 -45 1 -29 -4 -49 -14 -56 -13 -9 -13 -12 2 -17
13 -5 16 -14 10 -43 -6 -34 -64 -112 -64 -86 0 6 -4 12 -10 12 -5 0 -10 -9
-10 -20 0 -16 -26 -40 -44 -40 -3 0 2 16 9 35 11 24 12 41 5 59 -8 22 -6 25
18 28 18 2 28 10 30 23 2 11 10 25 18 32 19 14 3 26 -29 22 -12 -2 -27 0 -33
4 -18 11 -74 -4 -74 -19 0 -8 9 -14 20 -14 11 0 20 -7 20 -15 0 -8 -6 -15 -14
-15 -17 0 -32 -118 -17 -133 5 -5 7 -16 3 -25 -4 -11 -1 -14 11 -9 9 3 17 2
17 -3 0 -18 38 -11 43 8 3 12 5 13 6 2 0 -8 -11 -30 -27 -47 -25 -30 -28 -31
-39 -15 -10 16 -11 16 -18 -2 -5 -10 -3 -21 2 -25 6 -3 15 -16 22 -29 10 -18
9 -25 -4 -38 -8 -8 -15 -24 -15 -34 0 -26 -21 -71 -43 -93 -14 -14 -17 -27
-13 -52 5 -23 2 -38 -9 -48 -8 -9 -15 -20 -15 -26 0 -5 -9 -12 -19 -16 -21 -6
-38 -42 -26 -53 3 -3 15 -1 25 6 16 10 20 10 20 -1 0 -6 -9 -18 -20 -25 -14
-8 -20 -9 -20 -1 0 6 -9 9 -20 6 -16 -4 -20 0 -20 18 0 13 5 27 10 30 13 8 13
65 0 85 -13 22 -25 4 -25 -40 0 -23 -5 -42 -12 -44 -18 -7 -16 -55 2 -62 10
-4 12 -10 7 -18 -17 -21 -22 -77 -10 -129 6 -29 13 -46 15 -39 6 14 39 16 48
2 3 -5 -1 -10 -9 -10 -23 0 -26 -14 -12 -42 10 -19 14 -78 14 -223 1 -196 1
-197 -19 -174 -10 12 -19 29 -19 38 0 12 -2 13 -8 3 -12 -19 -14 -200 -2 -207
5 -3 10 3 10 14 0 11 4 23 10 26 6 4 9 -10 8 -36 -1 -25 3 -44 10 -47 7 -2 12
-20 12 -40 -1 -30 -3 -34 -11 -20 -5 9 -16 15 -23 12 -18 -7 -39 -122 -34
-189 3 -43 6 -50 26 -53 15 -2 22 -10 22 -26 0 -28 24 -50 45 -42 17 6 20 57
5 72 -16 16 2 88 23 92 19 4 25 -32 7 -43 -6 -3 -10 -17 -10 -31 0 -20 5 -24
30 -24 26 0 30 -4 30 -27 0 -33 31 -136 44 -145 7 -5 6 -19 -2 -41 -19 -51
-15 -111 7 -131 25 -23 61 -13 62 17 1 20 2 21 6 2 3 -11 9 -25 15 -32 5 -6 6
-23 2 -37 -4 -16 -2 -26 5 -26 6 0 11 7 11 15 0 8 5 15 10 15 6 0 10 -7 10
-16 0 -9 9 -29 21 -45 11 -16 18 -36 15 -45 -8 -20 15 -54 36 -54 11 0 18 -8
18 -20 0 -11 7 -23 15 -26 8 -4 15 -14 15 -24 0 -16 29 -50 44 -50 13 0 32
-24 60 -75 15 -28 40 -62 54 -76 15 -14 40 -42 55 -63 16 -20 34 -36 40 -35
32 4 40 -1 27 -16 -10 -12 -8 -16 14 -25 17 -6 24 -14 20 -25 -4 -11 -2 -14 9
-9 10 3 22 -4 32 -20 10 -14 24 -26 32 -26 8 0 32 -18 52 -39 25 -26 42 -36
48 -30 6 6 17 3 31 -10 l22 -19 -27 -7 -27 -6 30 -24 c16 -14 35 -22 42 -20 6
2 12 0 12 -5 0 -6 -4 -10 -10 -10 -19 0 -10 -21 13 -29 13 -5 29 -16 36 -25
18 -22 28 -20 65 11 l31 26 3 -22 c4 -25 8 -27 74 -36 40 -5 49 -10 54 -31 3
-13 13 -24 21 -24 8 0 37 -10 65 -22 41 -17 54 -19 69 -10 17 11 19 9 19 -17
0 -29 14 -42 38 -34 6 3 12 11 12 19 0 8 8 14 18 14 13 0 18 -7 18 -22 -1 -21
5 -24 69 -30 41 -4 74 -3 79 3 17 16 44 10 42 -8 -1 -15 8 -18 54 -20 30 0
154 -4 275 -8 162 -6 236 -4 280 5 67 14 141 17 167 6 21 -10 53 -4 53 9 0 5
-13 13 -30 16 -24 6 -20 7 20 7 28 0 69 3 92 7 31 6 52 3 77 -9 19 -9 38 -16
44 -16 5 0 12 -6 15 -14 7 -19 138 -17 145 2 2 7 13 10 27 6 20 -5 25 -1 31
19 3 14 3 31 -1 37 -4 6 -2 17 4 24 8 10 6 18 -9 31 -11 10 -20 26 -20 37 0
16 8 18 65 18 49 0 65 3 65 14 0 8 6 16 14 19 27 11 25 -6 -4 -33 -36 -34 -37
-50 -6 -87 21 -24 26 -26 40 -14 9 8 19 11 23 8 3 -3 19 1 35 9 28 15 30 19
26 58 -5 43 8 76 31 76 6 0 11 -7 11 -15 0 -21 30 -19 46 3 17 21 18 72 2 72
-9 0 -9 3 0 12 16 16 15 48 0 48 -7 1 -1 8 15 16 17 9 34 12 45 6 19 -9 94 -8
109 1 6 4 13 24 17 45 3 21 17 52 31 68 14 16 25 35 25 42 0 6 5 12 10 12 6 0
10 -6 10 -14 0 -7 7 -19 16 -27 13 -10 17 -10 25 2 15 25 10 49 -13 59 -13 5
-17 9 -10 9 6 1 12 10 12 22 0 26 18 15 31 -18 l10 -26 24 23 c19 18 22 26 13
37 -8 10 -8 17 0 25 7 7 12 20 12 30 0 10 11 25 25 34 14 9 25 21 25 27 0 5 8
16 18 23 9 7 18 17 18 23 1 6 2 16 3 23 1 9 4 9 13 0 20 -20 31 -14 24 13 -4
14 -2 25 4 25 5 0 10 8 10 19 0 10 7 24 15 31 8 7 15 18 15 25 0 21 45 38 68
26 11 -6 30 -11 41 -11 17 0 21 6 21 30 0 17 -4 30 -10 30 -5 0 -10 14 -10 31
0 25 3 29 19 24 13 -4 23 0 30 12 9 16 10 16 11 1 0 -9 5 -20 11 -23 6 -5 10
10 8 42 0 26 2 58 6 71 6 17 3 22 -9 22 -19 0 -22 36 -3 43 8 3 15 18 15 34 3
53 7 68 20 76 6 4 13 18 13 30 1 17 2 18 6 5 5 -20 28 -24 39 -6 4 6 0 16 -9
23 -10 7 -17 20 -17 29 0 20 26 21 34 1 10 -26 26 -16 26 15 0 17 -4 30 -10
30 -5 0 -10 7 -10 15 0 18 17 20 22 3 2 -6 10 -8 16 -4 17 10 15 26 -3 26 -10
0 -15 10 -15 30 0 17 4 30 8 30 14 0 32 -23 32 -42 0 -9 8 -21 18 -27 14 -8
15 -13 5 -30 -7 -12 -13 -27 -13 -35 0 -8 -7 -17 -16 -20 -11 -4 -14 -17 -12
-48 4 -58 22 -55 26 5 3 44 5 47 32 47 29 0 70 38 70 65 0 14 -22 25 -50 25
-13 0 -20 12 -27 48 -7 36 -13 46 -26 44 -22 -4 -23 35 -2 63 14 17 13 21 -12
42 -20 16 -23 22 -12 23 13 0 18 16 25 73 l9 72 35 5 c32 5 35 8 38 41 2 19
-6 89 -18 154 -11 64 -20 129 -20 144 0 14 -7 34 -15 45 -7 10 -17 43 -21 73
-5 46 -4 56 12 68 16 11 17 16 6 27 -11 11 -16 10 -28 -6 -14 -19 -14 -19 -14
2 0 13 6 22 15 22 17 0 35 38 28 58 -3 7 -13 10 -24 7 -15 -5 -19 -1 -19 19 0
19 5 26 20 26 21 0 28 24 10 35 -5 3 -10 17 -10 31 0 25 -24 34 -33 12 -3 -7
-6 1 -6 17 -1 21 8 39 29 58 16 16 30 35 30 43 0 21 -28 17 -42 -6 -7 -11 -18
-20 -25 -20 -23 0 -14 27 18 53 26 22 31 31 26 55 -3 16 -2 33 3 38 5 5 2 26
-6 49 -18 53 -18 75 0 49 13 -17 15 -18 21 -2 21 53 -37 78 -88 38 -27 -21
-36 -50 -17 -50 6 0 10 -8 10 -17 0 -15 -2 -15 -9 -4 -5 8 -16 11 -25 8 -18
-7 -21 4 -6 19 15 15 -5 40 -22 26 -11 -9 -16 -2 -27 33 -7 25 -18 45 -24 45
-6 0 -1 10 11 23 12 13 22 32 22 43 0 10 10 24 23 29 19 9 22 16 19 55 -4 67
-21 109 -49 127 -32 21 -118 26 -137 8 -11 -11 -17 -10 -37 10 -41 41 -51 55
-46 68 4 9 6 9 6 0 1 -18 41 -16 41 1 0 8 5 16 10 18 18 6 -18 78 -38 78 -15
0 -17 7 -14 34 3 24 -1 35 -12 39 -12 5 -16 0 -16 -19 0 -17 -8 -27 -25 -34
-23 -9 -30 -5 -61 26 -32 31 -36 41 -38 94 -1 33 -5 62 -8 66 -13 13 -59 -7
-68 -29 -7 -17 -9 -18 -9 -4 -1 10 -11 21 -23 26 -13 5 -30 18 -38 30 -8 12
-20 21 -28 21 -7 0 -2 10 12 24 33 29 32 32 -4 45 -17 5 -32 16 -34 23 -13 43
-16 47 -31 42 -8 -3 -15 -14 -15 -24 0 -33 -20 -33 -26 -1 -6 29 -34 45 -34
19 0 -9 -3 -9 -12 0 -7 7 -20 12 -30 12 -12 0 -18 7 -18 21 0 11 -10 29 -22
40 l-23 18 23 1 c22 0 31 23 13 34 -5 4 -5 19 2 36 8 21 18 30 34 30 28 0 30
16 4 30 -27 14 -31 13 -31 -10 0 -12 -7 -20 -16 -20 -11 0 -15 -6 -11 -19 4
-17 -2 -21 -50 -27 -46 -5 -57 -4 -65 10 -5 9 -16 16 -23 16 -8 0 -15 4 -15 9
0 5 -21 9 -46 9 -67 0 -144 13 -144 23 0 5 -16 17 -35 26 -21 10 -35 24 -35
35 0 10 -4 18 -10 18 -5 0 -10 8 -10 18 -1 17 -64 55 -75 44 -9 -9 -5 -52 5
-52 6 0 10 -5 10 -10 0 -7 -6 -7 -20 0 -14 8 -18 17 -14 38 7 40 -9 59 -38 45
-13 -7 -17 -12 -10 -12 6 -1 12 -12 12 -26 0 -23 -2 -24 -25 -13 -17 8 -24 17
-20 28 6 19 -16 29 -48 22 -15 -3 -16 -7 -6 -18 19 -23 0 -30 -32 -11 -17 9
-44 17 -60 17 -16 0 -29 5 -29 10 0 7 -145 10 -416 10 -396 0 -416 -1 -412
-18 5 -20 -37 -47 -48 -31 -3 5 2 9 10 9 9 0 16 9 16 20 0 13 -7 20 -20 20
-11 0 -20 -7 -20 -15 0 -8 -7 -15 -15 -15 -8 0 -22 -12 -32 -27 -9 -16 -18
-29 -19 -31 -1 -2 -15 3 -31 12 -23 13 -25 15 -8 16 11 0 27 5 35 10 13 9 13
11 0 20 -8 5 -25 10 -38 10 -12 0 -31 6 -42 12 -16 10 -24 10 -40 0 -24 -14
-70 -16 -70 -2 0 19 -47 10 -68 -13z m615 -43 c-3 -3 -12 -4 -19 -1 -8 3 -5 6
6 6 11 1 17 -2 13 -5z m-107 -24 c0 -5 -12 -10 -27 -10 -22 0 -25 2 -13 10 20
13 40 13 40 0z m615 1 c3 -6 -26 -9 -74 -8 -43 1 -77 5 -74 10 6 10 141 9 148
-2z m108 -8 c-7 -2 -19 -2 -25 0 -7 3 -2 5 12 5 14 0 19 -2 13 -5z m-39 -19
c9 -23 8 -24 -13 -24 -11 0 -23 -4 -26 -10 -3 -5 -16 -10 -28 -9 -21 1 -19 2
22 15 10 3 11 7 2 18 -12 14 -6 18 30 25 4 0 10 -6 13 -15z m-796 -10 c-9 -9
-21 -13 -27 -10 -20 13 -11 26 16 26 25 0 26 -1 11 -16z m112 -19 c0 -19 -20
-19 -56 0 l-29 15 43 0 c31 0 42 -4 42 -15z m535 -6 c15 -6 11 -8 -18 -8 -21
-1 -45 6 -53 14 -13 13 -11 14 18 8 18 -3 42 -10 53 -14z m390 1 c10 -11 16
-22 13 -25 -8 -8 -38 6 -38 16 0 5 -10 14 -22 19 -23 9 -23 9 3 9 14 1 34 -8
44 -19z m-782 -7 c-7 -2 -21 -2 -30 0 -10 3 -4 5 12 5 17 0 24 -2 18 -5z
m-269 -38 c-6 -16 -44 -21 -44 -7 0 14 12 22 31 22 12 0 16 -5 13 -15z m-219
-21 c27 -18 25 -34 -5 -34 -16 0 -30 18 -30 41 0 13 7 11 35 -7z m1290 -4 c3
-5 -3 -10 -15 -10 -12 0 -18 5 -15 10 3 6 10 10 15 10 5 0 12 -4 15 -10z
m-1182 -7 c-7 -2 -21 -2 -30 0 -10 3 -4 5 12 5 17 0 24 -2 18 -5z m1287 3 c0
-2 -13 -6 -30 -8 -16 -3 -30 -1 -30 4 0 4 14 8 30 8 17 0 30 -2 30 -4z m-1756
-22 c9 -3 16 -11 16 -16 0 -6 -7 -8 -14 -5 -9 4 -17 -2 -21 -14 -4 -10 -13
-19 -21 -19 -13 0 -12 4 1 30 17 33 17 33 39 24z m226 -3 c0 -16 -95 -46 -104
-33 -6 10 29 25 51 23 6 -1 14 3 18 9 8 12 35 13 35 1z m1827 3 c-3 -3 -12 -4
-19 -1 -8 3 -5 6 6 6 11 1 17 -2 13 -5z m-1708 -13 c10 -7 5 -11 -18 -16 -17
-3 -33 -11 -36 -16 -4 -5 -15 -9 -26 -9 -10 0 -19 -5 -19 -11 0 -5 -4 -7 -10
-4 -14 9 -12 25 3 25 8 0 22 9 32 20 19 21 51 26 74 11z m1560 -22 c-15 -9
-32 -2 -24 11 3 5 13 6 21 3 12 -4 13 -8 3 -14z m81 -4 c0 -9 -9 -15 -22 -15
-21 0 -21 0 -2 15 24 18 24 18 24 0z m126 -12 c-10 -10 -19 5 -10 18 6 11 8
11 12 0 2 -7 1 -15 -2 -18z m-176 -33 c24 -21 15 -25 -28 -14 -18 5 -20 9 -11
20 14 17 12 18 39 -6z m128 -20 c-10 -6 -25 -7 -40 -1 -20 9 -18 10 17 10 31
0 36 -2 23 -9z m-2211 -16 c-3 -3 -12 -4 -19 -1 -8 3 -5 6 6 6 11 1 17 -2 13
-5z m123 -4 c0 -5 -2 -10 -4 -10 -3 0 -8 5 -11 10 -3 6 -1 10 4 10 6 0 11 -4
11 -10z m2150 -6 c0 -14 -3 -14 -15 -4 -8 7 -15 14 -15 16 0 2 7 4 15 4 8 0
15 -7 15 -16z m-2076 0 c23 -9 20 -23 -4 -17 -11 3 -20 9 -20 14 0 11 3 11 24
3z m-272 -40 c-21 -15 -28 0 -10 20 9 9 15 10 20 3 4 -6 -1 -16 -10 -23z
m2251 29 c-7 -2 -21 -2 -30 0 -10 3 -4 5 12 5 17 0 24 -2 18 -5z m158 -24 c16
-11 29 -28 28 -37 0 -11 -3 -12 -6 -4 -2 6 -9 12 -14 12 -11 0 -49 32 -49 42
0 13 10 9 41 -13z m-57 -49 c14 -5 26 -14 26 -20 0 -16 -15 -12 -40 10 -26 22
-23 24 14 10z m136 -30 c-18 -11 -24 -6 -16 16 5 14 9 15 19 5 9 -9 9 -14 -3
-21z m-2310 13 c0 -1 -7 -9 -16 -17 -13 -14 -17 -14 -30 -2 -19 20 -18 21 16
21 17 0 30 -1 30 -2z m2240 -7 c0 -2 -7 -7 -16 -10 -8 -3 -12 -2 -9 4 6 10 25
14 25 6z m-2397 -103 c3 -3 0 -12 -8 -19 -17 -17 -29 -18 -19 -2 5 7 7 31 7
53 l-2 40 8 -33 c5 -18 11 -36 14 -39z m104 61 c-3 -3 -12 -4 -19 -1 -8 3 -5
6 6 6 11 1 17 -2 13 -5z m2448 -4 c3 -5 2 -10 -4 -10 -5 0 -13 5 -16 10 -3 6
-2 10 4 10 5 0 13 -4 16 -10z m6 -71 c7 -15 6 -19 -5 -19 -8 0 -16 -3 -19 -7
-2 -5 -2 -1 0 7 9 32 7 35 -19 38 -27 3 -35 12 -22 25 9 8 53 -22 65 -44z
m-2631 -26 c0 -7 -4 -13 -10 -13 -5 0 -7 7 -4 15 8 20 -25 32 -36 14 -5 -7
-11 -11 -14 -8 -3 3 2 15 11 26 l17 21 18 -20 c10 -12 18 -27 18 -35z m2705
17 c3 -5 -1 -10 -10 -10 -9 0 -13 5 -10 10 3 6 8 10 10 10 2 0 7 -4 10 -10z
m-2802 -45 c4 -8 2 -17 -3 -20 -6 -4 -10 3 -10 14 0 25 6 27 13 6z m2761 -10
c6 -18 43 -20 48 -3 2 6 10 9 17 7 9 -3 5 -10 -12 -22 -30 -19 -77 -9 -77 18
0 19 16 20 24 0z m-2700 -2 c-5 -5 -12 -12 -15 -16 -3 -5 -9 -2 -12 7 -5 12 0
16 15 16 12 0 17 -3 12 -7z m1971 -53 c3 -5 19 -10 35 -10 16 0 32 -4 35 -10
3 -5 12 -10 19 -10 8 0 36 -22 64 -49 38 -37 57 -66 74 -113 l23 -63 3 -1205
c2 -1087 1 -1211 -14 -1265 -9 -33 -21 -71 -28 -85 -15 -34 -102 -120 -121
-120 -8 0 -15 -4 -15 -9 0 -21 -99 -25 -690 -25 -591 0 -690 4 -690 25 0 5 -6
9 -14 9 -24 0 -93 74 -120 130 l-26 54 0 1267 0 1268 28 50 c36 65 60 94 100
116 17 11 32 23 32 27 0 4 15 8 33 8 17 0 39 5 47 10 21 13 1217 13 1225 0z
m-2007 -24 c-7 -8 -15 -12 -17 -11 -5 6 10 25 20 25 5 0 4 -6 -3 -14z m2816
-1 c3 -8 3 -15 0 -15 -3 0 -12 7 -20 15 -13 13 -13 15 -1 15 8 0 17 -7 21 -15z
m-2906 -45 c22 -11 24 -14 10 -17 -10 -3 -18 -12 -18 -21 -1 -16 -2 -16 -14 1
-7 9 -18 17 -24 17 -21 0 -23 20 -5 44 16 21 18 22 21 6 2 -9 15 -23 30 -30z
m2988 -10 c8 0 14 -7 14 -15 0 -8 -3 -15 -6 -15 -11 0 -34 29 -33 42 0 10 2
10 6 1 2 -7 11 -13 19 -13z m71 -6 c-3 -3 -12 -4 -19 -1 -8 3 -5 6 6 6 11 1
17 -2 13 -5z m157 -9 c-4 -8 -10 -15 -15 -15 -4 0 -6 7 -3 15 4 8 10 15 15 15
4 0 6 -7 3 -15z m-144 -35 c0 -5 -4 -10 -10 -10 -5 0 -10 5 -10 10 0 6 5 10
10 10 6 0 10 -4 10 -10z m37 -52 c-3 -8 -6 -5 -6 6 -1 11 2 17 5 13 3 -3 4
-12 1 -19z m-2 -28 c8 -12 -19 -40 -37 -39 -10 0 -10 2 0 6 6 2 12 13 12 24 0
20 15 26 25 9z m-3282 -17 c-7 -2 -13 -10 -13 -18 0 -7 -7 -18 -15 -25 -18
-15 -19 -9 -3 25 6 14 18 25 27 24 10 0 12 -2 4 -6z m3457 -29 c0 -8 -6 -14
-14 -14 -9 0 -12 7 -9 20 6 22 23 18 23 -6z m-3403 10 c-3 -3 -12 -4 -19 -1
-8 3 -5 6 6 6 11 1 17 -2 13 -5z m3280 -36 c-3 -8 -6 -5 -6 6 -1 11 2 17 5 13
3 -3 4 -12 1 -19z m211 -3 c17 -5 22 -14 22 -41 0 -37 -22 -47 -38 -18 -13 23
-32 9 -33 -24 -1 -21 -3 -22 -6 -7 -3 10 -12 29 -19 41 -13 19 -13 22 1 27 8
4 15 14 15 22 0 11 6 15 18 11 9 -2 27 -7 40 -11z m-3558 -40 c0 -9 -9 -15
-25 -15 -17 0 -25 -6 -25 -17 0 -9 -3 -13 -7 -10 -3 4 0 18 7 32 15 27 50 34
50 10z m3367 -17 c-3 -7 -5 -2 -5 12 0 14 2 19 5 13 2 -7 2 -19 0 -25z m48
-48 c-3 -5 -10 -10 -16 -10 -5 0 -9 5 -9 10 0 6 7 10 16 10 8 0 12 -4 9 -10z
m48 -56 c19 -7 22 -20 7 -29 -5 -3 -18 2 -30 12 -22 19 -27 38 -7 29 6 -3 20
-9 30 -12z m-66 -26 c-3 -8 -6 -5 -6 6 -1 11 2 17 5 13 3 -3 4 -12 1 -19z
m100 -50 c-3 -7 -5 -2 -5 12 0 14 2 19 5 13 2 -7 2 -19 0 -25z m-3597 -19 c0
-7 -6 -4 -15 7 -19 25 -19 40 0 20 8 -8 15 -20 15 -27z m3540 15 c0 -2 -7 -4
-15 -4 -8 0 -15 4 -15 10 0 5 7 7 15 4 8 -4 15 -8 15 -10z m-3600 -50 c0 -8
-5 -12 -10 -9 -6 4 -8 11 -5 16 9 14 15 11 15 -7z m3687 -6 c-3 -8 -6 -5 -6 6
-1 11 2 17 5 13 3 -3 4 -12 1 -19z m-3627 -8 c0 -5 -5 -10 -11 -10 -5 0 -7 5
-4 10 3 6 8 10 11 10 2 0 4 -4 4 -10z m-44 -29 c20 -16 22 -20 8 -25 -10 -4
-22 1 -30 11 -27 36 -15 43 22 14z m3699 -38 c-3 -8 -5 -20 -5 -26 -1 -7 -7 3
-15 22 -22 50 -19 72 6 42 11 -13 17 -31 14 -38z m-65 32 c0 -8 -7 -15 -15
-15 -8 0 -15 7 -15 15 0 8 7 15 15 15 8 0 15 -7 15 -15z m-3690 -49 c0 -8 -4
-18 -10 -21 -5 -3 -10 3 -10 14 0 12 5 21 10 21 6 0 10 -6 10 -14z m36 -40
c-7 -25 -13 -31 -18 -21 -9 15 11 67 22 60 4 -2 2 -20 -4 -39z m3691 -13 c18
-14 9 -53 -13 -53 -10 0 -14 13 -13 53 1 28 3 43 6 32 3 -11 11 -25 20 -32z
m143 27 c0 -13 -5 -18 -15 -14 -8 4 -15 12 -15 20 0 8 7 14 15 14 8 0 15 -9
15 -20z m-80 -31 c0 -5 -7 -9 -15 -9 -9 0 -15 9 -15 21 0 18 2 19 15 9 8 -7
15 -16 15 -21z m-3820 -11 c0 -17 -3 -18 -15 -8 -8 7 -15 19 -15 26 0 8 6 11
15 8 8 -4 15 -15 15 -26z m3944 17 c-4 -8 -11 -15 -16 -15 -6 0 -5 6 2 15 7 8
14 15 16 15 2 0 1 -7 -2 -15z m-3884 -45 c0 -5 -5 -10 -11 -10 -5 0 -7 5 -4
10 3 6 8 10 11 10 2 0 4 -4 4 -10z m3773 -35 c7 -17 -8 -29 -24 -19 -6 3 -15
0 -20 -7 -6 -11 -9 -9 -9 8 0 19 10 26 41 32 4 0 9 -6 12 -14z m-3886 -42 c-3
-10 -5 -4 -5 12 0 17 2 24 5 18 2 -7 2 -21 0 -30z m3919 -50 c-11 -11 -19 6
-11 24 8 17 8 17 12 0 3 -10 2 -21 -1 -24z m-3911 -65 c0 -34 21 -50 28 -21 4
18 2 0 -9 -69 -4 -21 -11 -35 -15 -32 -5 3 -6 16 -3 30 5 18 1 31 -14 44 -18
17 -19 23 -9 50 15 39 22 38 22 -2z m-137 -50 c-7 -19 -38 -22 -38 -4 0 10 9
16 21 16 12 0 19 -5 17 -12z m4081 -230 c0 -31 -3 -37 -8 -24 -7 18 -3 66 5
66 2 0 4 -19 3 -42z m12 -101 c-17 -17 -24 -1 -10 25 12 21 14 21 17 4 2 -10
-1 -23 -7 -29z m-4011 -22 c0 -8 -7 -15 -15 -15 -8 0 -15 7 -15 15 0 8 7 15
15 15 8 0 15 -7 15 -15z m4037 -67 c-3 -7 -5 -2 -5 12 0 14 2 19 5 13 2 -7 2
-19 0 -25z m-37 -28 c0 -22 -4 -40 -10 -40 -5 0 -10 18 -10 40 0 22 5 40 10
40 6 0 10 -18 10 -40z m-3992 -67 c0 -56 -2 -63 -9 -38 -8 26 -3 105 6 105 1
0 3 -30 3 -67z m3954 -15 c-9 -9 -12 -7 -12 12 0 19 3 21 12 12 9 -9 9 -15 0
-24z m-3915 -55 c-3 -10 -5 -4 -5 12 0 17 2 24 5 18 2 -7 2 -21 0 -30z m-66
-36 c-8 -8 -11 -7 -11 4 0 20 13 34 18 19 3 -7 -1 -17 -7 -23z m86 -39 c-2
-13 -4 -5 -4 17 -1 22 1 32 4 23 2 -10 2 -28 0 -40z m3903 11 c0 -11 -7 -19
-16 -19 -11 0 -14 5 -10 16 3 9 6 20 6 25 0 6 5 7 10 4 6 -3 10 -15 10 -26z
m-4063 -11 c-3 -7 -5 -2 -5 12 0 14 2 19 5 13 2 -7 2 -19 0 -25z m115 -97 c-6
-3 -12 -17 -15 -31 -3 -14 -3 2 0 35 7 74 17 93 21 41 2 -21 -1 -42 -6 -45z
m3958 -61 c-12 -17 -26 -30 -31 -30 -10 0 7 35 29 58 6 7 13 30 14 50 1 36 2
36 5 -6 3 -31 -1 -50 -17 -72z m-3890 16 c0 -6 -5 -4 -10 4 -6 10 -10 11 -10
3 0 -7 -4 -13 -8 -13 -4 0 -6 16 -4 36 l4 35 14 -27 c8 -14 14 -31 14 -38z
m-140 -69 c0 -13 -5 -28 -11 -34 -6 -6 -17 -28 -24 -49 l-14 -39 -1 50 c0 49
20 95 41 95 5 0 9 -10 9 -23z m4025 -36 c-4 -20 -11 -40 -16 -45 -5 -6 -9 -28
-10 -50 l-1 -41 -9 32 c-7 24 -5 42 6 69 8 20 15 47 15 61 0 15 4 22 11 17 7
-4 8 -20 4 -43z m-3925 24 c0 -8 -2 -15 -4 -15 -2 0 -6 7 -10 15 -3 8 -1 15 4
15 6 0 10 -7 10 -15z m30 -55 c0 -11 -4 -20 -10 -20 -5 0 -10 9 -10 20 0 11 5
20 10 20 6 0 10 -9 10 -20z m46 -75 c-8 -23 -25 -9 -19 16 4 13 9 17 16 10 5
-5 7 -17 3 -26z m-66 10 c0 -8 -4 -15 -10 -15 -5 0 -10 7 -10 15 0 8 5 15 10
15 6 0 10 -7 10 -15z m3785 -45 c3 -5 1 -10 -4 -10 -6 0 -11 5 -11 10 0 6 2
10 4 10 3 0 8 -4 11 -10z m-3728 -42 c-3 -7 -5 -2 -5 12 0 14 2 19 5 13 2 -7
2 -19 0 -25z m3773 -23 c0 -8 -4 -15 -10 -15 -5 0 -7 7 -4 15 4 8 8 15 10 15
2 0 4 -7 4 -15z m-53 -37 c-3 -7 -5 -2 -5 12 0 14 2 19 5 13 2 -7 2 -19 0 -25z
m-3693 -23 c3 -8 3 -22 0 -30 -8 -21 -34 0 -34 26 0 23 25 25 34 4z m3720 -10
c3 -8 1 -15 -4 -15 -6 0 -10 7 -10 15 0 8 2 15 4 15 2 0 6 -7 10 -15z m-3672
-65 c-6 -41 -12 -38 -12 6 0 19 4 33 8 30 5 -3 7 -19 4 -36z m3602 -5 c-4 -8
-8 -15 -10 -15 -2 0 -4 7 -4 15 0 8 4 15 10 15 5 0 7 -7 4 -15z m43 -7 c-3 -8
-6 -5 -6 6 -1 11 2 17 5 13 3 -3 4 -12 1 -19z m-3746 -71 c-8 -8 -11 -3 -11
19 1 25 2 27 11 11 8 -14 8 -22 0 -30z m3712 -30 c-7 -11 -23 2 -23 19 0 12 2
12 14 2 8 -7 12 -16 9 -21z m-3608 13 c3 -5 1 -10 -4 -10 -6 0 -11 5 -11 10 0
6 2 10 4 10 3 0 8 -4 11 -10z m3515 -19 c0 -6 -4 -13 -10 -16 -5 -3 -10 1 -10
9 0 9 5 16 10 16 6 0 10 -4 10 -9z m177 -33 c-3 -8 -6 -5 -6 6 -1 11 2 17 5
13 3 -3 4 -12 1 -19z m-3562 -18 c3 -5 1 -10 -4 -10 -6 0 -11 5 -11 10 0 6 2
10 4 10 3 0 8 -4 11 -10z m3520 1 c3 -5 1 -12 -5 -16 -5 -3 -10 1 -10 9 0 18
6 21 15 7z m-75 -22 c0 -11 -4 -18 -10 -14 -5 3 -7 12 -3 20 7 21 13 19 13 -6z
m-96 -23 c-3 -8 -12 -17 -20 -20 -11 -4 -12 -2 -1 14 14 23 29 27 21 6z
m-3318 -27 c10 -17 -7 -31 -22 -18 -22 18 -42 -4 -24 -26 7 -8 8 -15 3 -15 -5
0 -16 11 -23 25 -10 18 -10 28 -1 38 12 15 57 12 67 -4z m3384 5 c0 -8 -4 -12
-10 -9 -5 3 -10 10 -10 16 0 5 5 9 10 9 6 0 10 -7 10 -16z m-40 -39 c0 -16 -6
-25 -15 -25 -18 0 -19 16 -2 35 16 19 17 19 17 -10z m-70 -10 c0 -8 -2 -15 -4
-15 -2 0 -6 7 -10 15 -3 8 -1 15 4 15 6 0 10 -7 10 -15z m170 -37 c0 -5 -4 -8
-10 -8 -5 0 -10 10 -10 23 0 18 2 19 10 7 5 -8 10 -18 10 -22z m-140 -18 c0
-5 -10 -10 -22 -10 -19 0 -20 2 -8 10 19 13 30 13 30 0z m-3313 -22 c-3 -8 -6
-5 -6 6 -1 11 2 17 5 13 3 -3 4 -12 1 -19z m58 2 c3 -5 1 -10 -4 -10 -6 0 -11
5 -11 10 0 6 2 10 4 10 3 0 8 -4 11 -10z m3155 -57 c0 -3 -7 0 -15 7 -8 7 -15
22 -15 34 0 18 2 17 15 -8 8 -15 15 -31 15 -33z m70 11 c0 -3 -7 -12 -15 -21
-20 -19 -32 -9 -15 12 12 15 30 20 30 9z m-3193 -26 c-3 -8 -6 -5 -6 6 -1 11
2 17 5 13 3 -3 4 -12 1 -19z m63 7 c0 -8 -4 -15 -10 -15 -5 0 -10 7 -10 15 0
8 5 15 10 15 6 0 10 -7 10 -15z m28 -46 c-2 -6 -8 -10 -13 -10 -5 0 -11 4 -13
10 -2 6 4 11 13 11 9 0 15 -5 13 -11z m2962 -29 c0 -5 -5 -10 -11 -10 -5 0 -7
5 -4 10 3 6 8 10 11 10 2 0 4 -4 4 -10z m-3002 -24 c0 -19 -3 -22 -13 -13 -7
7 -9 14 -4 15 5 2 7 8 3 13 -3 5 -1 9 4 9 5 0 10 -11 10 -24z m72 -12 c0 -8
-4 -12 -10 -9 -5 3 -10 10 -10 16 0 5 5 9 10 9 6 0 10 -7 10 -16z m2927 -26
c-3 -8 -6 -5 -6 6 -1 11 2 17 5 13 3 -3 4 -12 1 -19z m-2887 -8 c0 -5 -8 -10
-17 -10 -15 0 -16 2 -3 10 19 12 20 12 20 0z m2850 -26 c0 -2 -7 -4 -15 -4 -8
0 -15 4 -15 10 0 5 7 7 15 4 8 -4 15 -8 15 -10z m-2794 -11 c17 -22 18 -43 3
-43 -14 0 -38 30 -39 48 0 18 21 15 36 -5z m2719 6 c11 -16 1 -19 -13 -3 -7 8
-8 14 -3 14 5 0 13 -5 16 -11z m-2785 -30 c0 -5 -4 -9 -10 -9 -5 0 -10 7 -10
16 0 8 5 12 10 9 6 -3 10 -10 10 -16z m134 -24 c4 -10 -1 -15 -15 -15 -17 0
-18 2 -7 15 16 18 15 18 22 0z m-94 -15 c0 -5 -2 -10 -4 -10 -3 0 -8 5 -11 10
-3 6 -1 10 4 10 6 0 11 -4 11 -10z m2670 0 c0 -5 -4 -10 -9 -10 -6 0 -13 5
-16 10 -3 6 1 10 9 10 9 0 16 -4 16 -10z m77 4 c-3 -3 -12 -4 -19 -1 -8 3 -5
6 6 6 11 1 17 -2 13 -5z m-2657 -50 c0 -2 -7 -4 -15 -4 -8 0 -15 4 -15 10 0 5
7 7 15 4 8 -4 15 -8 15 -10z m70 -9 c0 -8 -9 -15 -20 -15 -10 0 -24 -9 -30
-20 -6 -11 -16 -20 -23 -19 -9 0 -9 2 1 6 6 2 12 13 12 24 0 14 7 19 25 19 14
0 25 5 25 10 0 6 2 10 5 10 3 0 5 -7 5 -15z m2474 -40 c4 -10 -1 -15 -14 -15
-11 0 -20 7 -20 15 0 8 6 15 14 15 8 0 16 -7 20 -15z m-2454 -20 c0 -8 6 -15
13 -15 6 0 19 -6 27 -13 14 -11 14 -14 -2 -29 -17 -17 -19 -16 -38 24 -23 48
-23 48 -10 48 6 0 10 -7 10 -15z m2337 -22 c-10 -9 -58 -10 -63 -1 -3 4 12 8
32 8 21 0 34 -3 31 -7z m58 -13 c3 -5 -1 -10 -9 -10 -9 0 -16 5 -16 10 0 6 4
10 9 10 6 0 13 -4 16 -10z m-2285 -25 c0 -8 -7 -15 -15 -15 -8 0 -15 7 -15 15
0 8 7 15 15 15 8 0 15 -7 15 -15z m2230 -10 c0 -8 -4 -15 -10 -15 -5 0 -7 7
-4 15 4 8 8 15 10 15 2 0 4 -7 4 -15z m-40 -21 c0 -2 -12 -4 -26 -4 -14 0 -23
4 -20 9 6 8 46 4 46 -5z m-2090 -24 c0 -12 -40 -34 -47 -26 -9 8 17 36 33 36
8 0 14 -4 14 -10z m-85 -10 c3 -5 1 -10 -4 -10 -6 0 -11 5 -11 10 0 6 2 10 4
10 3 0 8 -4 11 -10z m2075 -31 c0 -5 -7 -9 -15 -9 -9 0 -12 6 -9 15 6 15 24
11 24 -6z m140 -15 c0 -14 -3 -14 -15 -4 -8 7 -15 14 -15 16 0 2 7 4 15 4 8 0
15 -7 15 -16z m-2100 -14 c0 -11 -4 -20 -10 -20 -5 0 -10 5 -10 10 0 6 -7 10
-16 10 -8 0 -12 5 -9 10 12 19 45 11 45 -10z m83 3 c-7 -2 -19 -2 -25 0 -7 3
-2 5 12 5 14 0 19 -2 13 -5z m84 1 c-3 -3 -12 -4 -19 -1 -8 3 -5 6 6 6 11 1
17 -2 13 -5z m1763 -11 c0 -12 -3 -14 -8 -6 -4 6 -23 13 -42 16 -33 4 -33 4 8
5 34 2 42 -1 42 -15z m-1791 -25 c12 -17 10 -18 -30 -17 -35 0 -40 2 -23 9 12
5 25 14 29 20 4 6 8 10 9 8 1 -2 8 -11 15 -20z m1681 -8 c0 -18 -3 -19 -21 -9
-17 9 -19 13 -8 20 22 14 29 11 29 -11z m265 -9 c-6 -5 -25 10 -25 20 0 5 6 4
14 -3 8 -7 12 -15 11 -17z m-58 -6 c3 -11 -47 -38 -55 -30 -3 3 0 5 6 5 7 0
12 9 12 21 0 14 5 19 17 17 9 -2 18 -7 20 -13z m-2117 -19 c0 -8 -4 -18 -10
-21 -5 -3 -10 0 -10 9 0 8 -6 17 -12 19 -7 3 -3 6 10 6 13 1 22 -5 22 -13z
m420 7 c-8 -3 -23 -12 -32 -21 -10 -8 -18 -10 -18 -4 0 6 -12 15 -27 20 -24 9
-20 10 32 10 33 0 53 -2 45 -5z m1307 1 c-3 -3 -12 -4 -19 -1 -8 3 -5 6 6 6
11 1 17 -2 13 -5z m110 -14 c3 -10 2 -11 -4 -4 -4 7 -17 14 -28 17 -16 5 -15
5 4 4 14 -1 26 -9 28 -17z m-199 -35 c3 -3 -11 -5 -31 -5 -25 0 -37 4 -37 14
0 12 7 13 31 6 18 -5 34 -12 37 -15z m-1298 -12 c0 -13 -3 -13 -15 -3 -8 7
-15 16 -15 21 0 5 7 6 15 3 8 -4 15 -13 15 -21z m131 1 c9 -11 8 -14 -4 -14
-20 0 -79 25 -72 31 9 10 64 -3 76 -17z m75 -11 c-10 -10 -19 5 -10 18 6 11 8
11 12 0 2 -7 1 -15 -2 -18z m1174 12 c-7 -8 -16 -15 -21 -15 -5 0 -9 7 -9 15
0 9 9 15 21 15 18 0 19 -2 9 -15z m-65 -25 c4 -6 -7 -10 -27 -9 -27 0 -30 2
-13 9 27 12 33 12 40 0z m-1127 -21 c12 -19 11 -20 -10 -17 -12 2 -24 11 -26
21 -5 24 20 21 36 -4z m301 5 c9 -8 -55 -2 -74 6 -13 6 -5 7 25 3 25 -3 47 -7
49 -9z m-195 -34 c12 0 26 -4 32 -9 5 -5 23 -11 39 -14 19 -2 11 -5 -22 -6
-29 0 -53 3 -53 8 0 5 -12 11 -27 14 -38 9 -57 23 -49 36 5 8 15 5 33 -9 14
-11 35 -20 47 -20z m319 33 c-7 -2 -21 -2 -30 0 -10 3 -4 5 12 5 17 0 24 -2
18 -5z m243 -8 l29 -15 -30 0 c-16 1 -39 7 -49 15 -19 15 -19 15 1 15 11 0 34
-7 49 -15z m639 -18 c-13 -7 -14 -12 -4 -23 9 -12 6 -14 -17 -14 -16 0 -39 -3
-51 -6 -36 -10 -27 11 13 29 23 12 34 23 30 32 -4 12 -1 12 20 3 21 -10 23
-13 9 -21z m-1105 13 c0 -5 -9 -10 -19 -10 -11 0 -23 5 -26 10 -4 6 5 10 19
10 14 0 26 -4 26 -10z m550 0 c-8 -5 -22 -9 -30 -9 -10 0 -8 3 5 9 27 12 43
12 25 0z m227 4 c-3 -3 -12 -4 -19 -1 -8 3 -5 6 6 6 11 1 17 -2 13 -5z m-650
-23 c7 -11 25 -21 40 -24 23 -3 21 -4 -9 -6 -47 -1 -53 1 -52 17 1 6 -2 12 -8
12 -5 0 -6 5 -3 10 9 15 19 12 32 -9z m198 4 c29 -13 28 -13 -35 -14 -61 0
-64 1 -40 14 31 18 37 18 75 0z m498 -2 c-7 -2 -19 -2 -25 0 -7 3 -2 5 12 5
14 0 19 -2 13 -5z m-770 -10 c-7 -2 -19 -2 -25 0 -7 3 -2 5 12 5 14 0 19 -2
13 -5z m350 0 c-7 -2 -19 -2 -25 0 -7 3 -2 5 12 5 14 0 19 -2 13 -5z m122 -28
c-22 -8 -51 -15 -64 -15 -24 0 -24 0 -5 15 10 8 39 14 64 14 l45 0 -40 -14z
m128 8 c-29 -2 -53 -8 -53 -14 0 -5 -7 -9 -16 -9 -14 0 -14 3 -4 15 9 11 29
14 69 13 l56 -2 -52 -3z m-446 -35 c-3 -7 -5 -2 -5 12 0 14 2 19 5 13 2 -7 2
-19 0 -25z m-427 6 c0 -2 -11 -4 -25 -4 -14 0 -25 4 -25 9 0 4 11 6 25 3 14
-2 25 -6 25 -8z m1278 -15 c24 -1 23 -2 -8 -9 -36 -9 -50 -6 -50 12 0 5 7 7
16 4 9 -3 28 -6 42 -7z"/>
<path d="M2998 4604 c-17 -5 -18 -63 -18 -1024 0 -919 2 -1018 16 -1024 24 -9
1257 -7 1272 2 10 7 12 214 12 1022 0 557 -2 1015 -4 1017 -6 7 -1258 13
-1278 7z"/>
<path d="M3580 2461 c-103 -21 -155 -156 -96 -249 36 -58 65 -72 144 -72 66 0
69 1 105 38 20 21 37 46 37 56 0 9 5 26 11 37 12 23 -7 119 -24 119 -5 0 -7 6
-4 14 4 9 -9 21 -36 34 -52 25 -91 32 -137 23z"/>
<path d="M3730 2116 c0 -2 7 -9 15 -16 12 -10 15 -10 15 4 0 9 -7 16 -15 16
-8 0 -15 -2 -15 -4z"/>
<path d="M1390 5670 c0 -5 4 -10 9 -10 6 0 13 5 16 10 3 6 -1 10 -9 10 -9 0
-16 -4 -16 -10z"/>
<path d="M4370 5655 c0 -15 6 -25 14 -25 9 0 16 -12 18 -32 2 -23 9 -34 22
-36 17 -4 18 1 11 45 -8 55 -19 73 -46 73 -14 0 -19 -7 -19 -25z"/>
<path d="M1406 5605 c-8 -8 -19 -15 -25 -15 -6 0 -11 -4 -11 -9 0 -11 70 -3
84 9 11 11 -1 30 -19 30 -7 0 -20 -7 -29 -15z"/>
<path d="M2760 5580 c0 -16 5 -21 23 -18 12 2 22 10 22 18 0 8 -10 16 -22 18
-18 3 -23 -2 -23 -18z"/>
<path d="M1451 5538 c-6 -18 -9 -19 -14 -5 -9 23 -50 21 -65 -3 -7 -11 -17
-20 -22 -20 -6 0 -10 9 -10 20 0 27 -17 25 -25 -2 -4 -13 -22 -54 -41 -91 -19
-38 -34 -73 -34 -78 0 -5 -22 -31 -50 -57 -39 -38 -48 -52 -43 -70 4 -16 0
-27 -13 -37 -11 -8 -14 -15 -7 -15 7 0 18 -12 25 -27 8 -17 23 -29 38 -31 24
-4 80 -54 80 -72 0 -11 95 -60 116 -60 8 0 14 -7 14 -15 0 -23 69 -20 76 3 13
37 38 87 51 100 7 7 13 20 13 28 0 8 9 14 20 14 13 0 27 12 38 31 9 17 28 45
41 61 28 34 46 119 24 111 -7 -3 -13 0 -13 6 0 25 -155 181 -180 181 -12 1
-12 2 2 11 10 5 15 16 12 24 -9 22 -23 18 -33 -7z"/>
<path d="M5866 5522 c-3 -6 -1 -14 5 -17 15 -10 25 3 12 16 -7 7 -13 7 -17 1z"/>
<path d="M4685 5490 c-8 -12 20 -24 35 -15 6 3 8 11 5 16 -8 12 -32 12 -40 -1z"/>
<path d="M5923 5493 c-7 -2 -13 -12 -13 -20 0 -12 6 -13 28 -7 15 4 47 10 72
14 l45 7 -47 2 c-25 0 -52 3 -60 5 -7 3 -19 2 -25 -1z"/>
<path d="M4985 5310 c-8 -13 20 -24 36 -15 8 6 7 10 -2 16 -18 11 -26 11 -34
-1z"/>
<path d="M5063 5204 c-8 -20 8 -48 31 -52 24 -5 21 45 -4 58 -16 9 -22 8 -27
-6z"/>
<path d="M5933 5173 c-32 -18 -70 -35 -85 -38 -15 -4 -30 -15 -33 -26 -5 -14
-16 -19 -41 -19 -19 0 -34 -4 -34 -9 0 -5 -13 -14 -30 -20 -27 -9 -30 -15 -30
-50 0 -26 6 -44 18 -53 17 -13 35 -39 49 -68 7 -14 27 -40 49 -64 6 -6 9 -17
6 -25 -2 -7 5 -26 17 -42 11 -15 21 -41 21 -57 0 -22 10 -35 45 -60 38 -27 49
-30 66 -21 11 6 27 8 34 5 24 -9 80 38 77 64 -2 19 0 21 12 10 21 -16 39 -2
33 26 -3 20 0 23 32 26 20 2 70 -1 111 -6 102 -13 220 -14 217 -1 -1 6 -38 9
-88 9 l-87 -2 -6 29 c-5 24 -10 29 -36 29 -18 0 -29 4 -25 10 3 6 15 10 25 10
12 0 21 9 24 23 9 43 15 157 10 172 -10 25 -23 17 -30 -20 -3 -20 -9 -34 -11
-31 -5 5 -10 62 -12 125 l-1 34 -60 -7 c-56 -7 -60 -6 -60 14 0 11 -4 20 -9
20 -5 0 -11 10 -13 23 -5 36 -81 31 -155 -10z m287 -139 c0 -53 -13 -57 -26
-8 -18 66 -17 70 6 49 11 -10 20 -28 20 -41z m35 -143 c16 -7 14 -9 -15 -14
-36 -8 -46 -4 -35 12 7 12 21 13 50 2z"/>
<path d="M6260 5113 c0 -45 16 -60 24 -23 6 33 1 50 -15 50 -5 0 -9 -12 -9
-27z"/>
<path d="M920 4824 c-6 -14 -10 -32 -10 -40 0 -8 -10 -14 -24 -14 -19 0 -25 6
-28 28 -2 16 -9 27 -18 27 -9 0 -14 -7 -12 -18 2 -11 -4 -27 -13 -37 -12 -13
-13 -23 -5 -44 8 -22 6 -30 -10 -46 -22 -22 -25 -42 -10 -71 8 -15 7 -23 -4
-34 -13 -13 -15 -12 -18 12 -4 33 -22 37 -26 6 -2 -16 5 -26 30 -39 44 -22 44
-22 23 -38 -17 -12 -18 -17 -7 -40 7 -15 12 -37 12 -49 0 -34 19 -47 67 -47
43 0 104 -30 146 -72 38 -39 140 -12 170 44 10 18 24 44 32 58 8 14 15 37 15
53 0 15 9 36 19 46 18 18 19 29 14 111 -6 95 -26 140 -61 140 -21 0 -91 25
-170 61 -78 36 -100 37 -112 3z m-42 -112 c-7 -3 -19 -11 -25 -20 -11 -13 -13
-13 -19 1 -3 10 -3 29 0 43 l7 27 25 -24 c17 -16 21 -25 12 -27z m-48 -96 c0
-3 -4 -8 -10 -11 -5 -3 -10 -1 -10 4 0 6 5 11 10 11 6 0 10 -2 10 -4z"/>
<path d="M1806 4703 c-12 -12 -6 -43 9 -43 8 0 15 9 15 19 0 21 -13 34 -24 24z"/>
<path d="M6345 4570 c-3 -5 -16 -10 -29 -10 -22 0 -66 -37 -66 -56 0 -5 -19
-17 -41 -28 -45 -20 -46 -38 -3 -46 l29 -6 -27 -7 c-17 -5 -36 -2 -48 5 -16
10 -22 10 -32 -4 -7 -9 -36 -19 -66 -22 -68 -9 -82 -15 -83 -35 0 -11 -3 -9
-9 7 -12 29 -24 28 -44 -3 -14 -22 -16 -42 -10 -128 3 -56 11 -105 17 -109 15
-9 37 2 37 18 0 19 26 7 38 -19 l10 -22 10 25 c9 24 9 24 14 -8 3 -20 -1 -37
-9 -43 -16 -14 -17 -51 -1 -67 14 -14 -8 -46 -28 -38 -15 6 -44 -24 -44 -45 0
-47 60 -51 99 -8 24 26 29 28 35 14 10 -28 106 -11 213 36 24 11 53 19 65 19
14 0 38 16 60 41 36 40 38 45 38 110 0 62 -2 69 -20 69 -13 0 -20 7 -20 20 0
11 -4 20 -10 20 -5 0 -10 15 -10 33 0 18 -5 38 -10 43 -8 8 -6 15 5 24 19 15
32 5 37 -28 6 -41 23 -28 26 20 3 41 -1 51 -23 73 -24 21 -26 29 -20 65 4 23
12 40 20 40 16 0 29 35 20 50 -8 13 -112 13 -120 0z m55 -34 c0 -11 -19 -15
-25 -6 -3 5 1 10 9 10 9 0 16 -2 16 -4z m-120 -86 c0 -5 -7 -10 -15 -10 -8 0
-15 5 -15 10 0 6 7 10 15 10 8 0 15 -4 15 -10z"/>
<path d="M6444 4475 c-8 -20 3 -48 16 -40 13 8 13 55 0 55 -6 0 -13 -7 -16
-15z"/>
<path d="M1513 4385 c-12 -9 -11 -15 6 -37 22 -27 28 -68 11 -68 -5 0 -10 -16
-10 -35 0 -28 4 -36 24 -41 32 -8 46 2 46 31 0 13 4 26 9 30 17 10 41 67 41
96 0 26 -2 27 -57 31 -31 1 -62 -2 -70 -7z"/>
<path d="M1478 4283 c-7 -25 1 -43 18 -43 11 0 14 8 12 27 -4 31 -23 42 -30
16z"/>
<path d="M1547 4183 c-3 -5 -2 -15 2 -21 9 -15 43 -4 38 12 -5 14 -33 20 -40
9z"/>
<path d="M5927 4064 c-4 -4 -7 -20 -7 -36 0 -26 2 -28 21 -18 13 7 19 19 17
32 -3 22 -19 33 -31 22z"/>
<path d="M5984 4055 c-7 -17 4 -37 17 -30 12 8 12 45 -1 45 -6 0 -13 -7 -16
-15z"/>
<path d="M784 4033 l-72 -4 -5 -37 c-3 -20 -10 -55 -16 -77 -6 -22 -11 -66
-11 -97 0 -31 -4 -60 -10 -63 -5 -3 -10 -19 -10 -36 0 -20 -5 -29 -16 -29 -13
0 -15 -7 -10 -32 3 -18 7 -44 9 -58 3 -33 39 -39 222 -40 202 -2 206 -2 213 4
8 8 7 55 -3 163 -6 69 -5 96 4 107 8 10 11 40 9 85 -2 53 0 72 11 76 29 11 -9
32 -61 33 -29 0 -82 3 -118 5 -36 2 -97 2 -136 0z"/>
<path d="M676 4011 c-4 -5 -2 -12 3 -15 5 -4 12 -2 15 3 4 5 2 12 -3 15 -5 4
-12 2 -15 -3z"/>
<path d="M381 3674 c0 -11 3 -14 6 -6 3 7 2 16 -1 19 -3 4 -6 -2 -5 -13z"/>
<path d="M1485 3671 c-3 -5 -1 -12 5 -16 5 -3 10 1 10 9 0 18 -6 21 -15 7z"/>
<path d="M6072 3649 c-24 -9 -22 -29 4 -29 16 0 19 -26 4 -35 -5 -3 -10 -15
-10 -25 0 -10 -6 -20 -12 -23 -10 -3 -10 -8 1 -21 11 -13 11 -20 3 -28 -15
-15 -15 -76 -2 -149 5 -30 12 -71 15 -91 8 -49 45 -68 137 -68 37 0 68 -3 68
-8 0 -11 50 -29 103 -37 46 -6 47 -6 48 22 2 24 2 25 6 5 3 -13 -1 -30 -8 -38
-16 -20 -3 -30 17 -13 13 11 18 11 21 2 3 -7 19 -13 36 -13 21 0 36 -7 45 -20
14 -23 42 -27 42 -5 0 8 -10 17 -23 20 -20 6 -22 11 -21 78 1 88 -2 97 -31 97
-34 0 -41 18 -37 107 3 71 6 83 23 88 20 7 25 43 10 80 -5 12 -3 35 7 58 8 21
12 40 9 43 -11 12 -157 14 -178 4 -12 -7 -25 -8 -32 -2 -13 10 -117 8 -158 -3
-16 -4 -30 -2 -33 4 -8 13 -23 13 -54 0z"/>
<path d="M1502 3589 c-17 -27 -6 -129 14 -129 10 0 14 16 14 63 0 74 -10 96
-28 66z"/>
<path d="M6618 3565 c-16 -21 -16 -24 -2 -29 27 -10 34 -7 34 18 0 34 -12 38
-32 11z"/>
<path d="M6590 3305 c-11 -13 -8 -15 14 -15 14 0 29 -1 33 -2 4 -2 9 5 11 15
4 22 -40 24 -58 2z"/>
<path d="M736 3291 c-17 -19 -18 -22 -2 -45 15 -24 15 -25 -12 -38 -34 -16
-40 -55 -13 -84 13 -15 20 -40 24 -85 6 -94 44 -267 62 -285 11 -12 25 -14 48
-10 18 4 59 11 92 16 32 6 64 15 69 20 6 6 27 10 48 10 30 0 44 7 73 37 29 30
35 44 35 78 0 29 -6 47 -20 60 -11 10 -20 29 -20 42 0 20 4 23 20 18 12 -4 20
-2 20 5 0 7 -8 14 -18 17 -14 3 -22 21 -31 71 -7 37 -18 74 -25 82 -7 8 -16
27 -20 42 -5 21 -15 30 -47 38 -59 16 -167 3 -182 -21 -14 -22 -47 -25 -47 -5
0 8 9 18 21 21 30 10 17 30 -22 33 -25 2 -40 -3 -53 -17z"/>
<path d="M5920 2999 c0 -11 4 -18 10 -14 5 3 7 12 3 20 -7 21 -13 19 -13 -6z"/>
<path d="M5961 2903 c-7 -14 -12 -15 -24 -5 -20 17 -31 -12 -15 -38 10 -15 10
-22 0 -32 -15 -15 -16 -94 -1 -104 8 -4 8 -8 0 -13 -5 -4 -12 -41 -13 -83 -3
-67 -5 -78 -22 -80 -30 -5 -30 -25 -2 -51 17 -16 26 -35 26 -56 0 -38 19 -48
60 -31 27 11 33 9 78 -24 45 -32 56 -36 108 -35 72 2 123 27 107 52 -3 5 0 13
7 17 8 5 15 28 17 52 5 61 8 66 40 70 22 2 27 8 25 23 -14 84 -14 88 -2 80 17
-10 30 13 30 55 0 20 4 40 9 45 5 6 12 26 16 46 6 30 3 37 -12 43 -10 3 -24 9
-30 12 -8 3 -13 -1 -13 -11 0 -9 -5 -13 -10 -10 -6 4 -8 11 -4 16 3 5 1 16 -5
23 -7 8 -10 20 -9 27 4 20 -47 23 -73 6 -19 -14 -23 -13 -39 3 -16 16 -36 19
-129 19 -94 1 -111 -2 -120 -16z m336 -325 c-3 -8 -6 -5 -6 6 -1 11 2 17 5 13
3 -3 4 -12 1 -19z"/>
<path d="M5630 2742 c0 -14 11 -21 26 -15 8 3 11 9 8 14 -7 11 -34 12 -34 1z"/>
<path d="M1191 2526 c-35 -6 -66 -17 -69 -23 -2 -7 -10 -13 -18 -13 -8 0 -17
-7 -20 -15 -4 -8 -13 -15 -21 -15 -24 0 -120 -73 -132 -102 -7 -15 -11 -42 -9
-59 4 -38 28 -52 29 -17 l0 23 11 -25 c5 -14 14 -33 19 -42 5 -10 9 -29 9 -42
0 -18 6 -25 23 -28 16 -2 22 -10 23 -28 1 -47 4 -52 20 -46 18 7 43 -19 44
-45 1 -53 121 -66 210 -22 30 15 57 31 60 35 3 4 18 11 33 17 18 7 25 15 21
26 -8 19 22 20 42 1 16 -17 54 -10 54 10 0 8 -11 14 -27 15 -16 0 -22 3 -15 6
16 6 15 28 -3 43 -18 15 -19 43 -3 70 7 10 9 23 4 27 -4 4 -12 0 -18 -11 -10
-17 -11 -17 -24 5 -7 13 -18 34 -23 46 -6 13 -16 20 -24 17 -18 -7 -31 54 -22
98 5 23 2 34 -14 49 -11 10 -25 19 -30 19 -6 0 -14 6 -18 14 -12 21 -42 24
-112 12z"/>
<path d="M5730 2506 c0 -19 5 -38 10 -41 6 -4 10 10 10 34 0 23 -4 41 -10 41
-5 0 -10 -15 -10 -34z"/>
<path d="M5802 2503 c-15 -29 4 -62 36 -63 19 0 14 45 -7 64 -18 17 -20 17
-29 -1z"/>
<path d="M5505 2440 c-3 -5 -1 -10 4 -10 6 0 11 5 11 10 0 6 -2 10 -4 10 -3 0
-8 -4 -11 -10z"/>
<path d="M5691 2197 c-7 -9 -29 -17 -49 -19 -29 -2 -40 -9 -50 -30 -7 -16 -19
-28 -26 -28 -9 0 -12 -9 -8 -25 2 -14 8 -25 13 -25 5 0 9 -5 9 -11 0 -5 -5 -7
-11 -3 -14 8 -29 -14 -29 -43 0 -22 -13 -28 -47 -24 -7 1 -13 -5 -13 -14 0 -9
6 -15 13 -14 28 3 40 -4 17 -10 -22 -6 -25 -12 -22 -43 1 -20 -2 -39 -7 -43
-12 -7 -3 -35 10 -35 5 0 9 7 9 15 0 13 3 13 13 3 8 -7 12 -20 9 -30 -3 -14 3
-20 26 -24 23 -5 29 -10 25 -25 -4 -13 6 -34 26 -59 17 -21 31 -48 31 -58 0
-25 25 -46 46 -38 15 6 15 8 0 25 -17 18 -17 20 2 30 18 9 21 8 24 -12 2 -16
9 -21 26 -20 22 3 30 -11 12 -22 -12 -7 -13 -25 -2 -25 5 0 17 9 29 19 11 10
29 21 39 23 11 2 20 13 22 26 2 14 10 22 23 22 11 0 23 10 29 24 5 13 14 27
19 31 6 3 11 17 11 30 0 14 9 29 20 35 11 6 20 15 20 20 0 13 37 50 50 50 6 0
10 6 10 14 0 8 14 25 31 37 21 15 29 27 26 40 -4 13 0 19 13 19 13 0 19 11 23
50 3 28 4 57 0 65 -8 22 -33 18 -33 -5 0 -11 -4 -20 -9 -20 -15 0 -23 18 -11
25 18 11 11 35 -10 35 -11 0 -20 -4 -20 -10 0 -5 -12 -10 -27 -10 l-28 1 24
13 c23 13 23 13 2 19 -11 3 -24 1 -27 -4 -10 -17 -32 -10 -27 10 6 23 -14 38
-30 22 -18 -18 -45 -13 -61 11 -9 12 -16 17 -16 10 0 -15 -47 -16 -52 -2 -6
19 -73 24 -87 7z m329 -147 c0 -5 -4 -10 -10 -10 -5 0 -10 5 -10 10 0 6 5 10
10 10 6 0 10 -4 10 -10z m-131 -289 c-15 -5 -22 6 -14 19 6 9 10 9 16 -1 5 -8
4 -15 -2 -18z"/>
<path d="M1606 2161 c-7 -11 22 -23 35 -15 5 3 7 10 4 15 -8 12 -32 12 -39 0z"/>
<path d="M1700 1911 c-8 -5 -41 -12 -73 -16 -41 -5 -57 -10 -54 -19 3 -8 -10
-20 -33 -30 -26 -11 -40 -25 -45 -44 -4 -15 -36 -54 -72 -87 -63 -59 -64 -62
-58 -98 4 -20 11 -37 16 -37 5 0 9 -7 9 -15 0 -8 15 -17 38 -21 20 -4 50 -17
65 -30 16 -13 34 -24 40 -24 7 0 6 -4 -3 -10 -13 -9 -11 -13 10 -29 13 -11 27
-18 30 -16 3 2 30 -18 60 -45 47 -42 52 -51 47 -77 -5 -28 -4 -30 19 -25 17 3
24 0 24 -12 0 -9 -5 -16 -12 -16 -6 0 -9 -2 -6 -5 13 -13 58 8 58 26 0 10 -4
19 -10 19 -5 0 -10 7 -10 15 0 13 3 13 20 3 26 -17 36 -3 20 28 -13 23 -12 27
3 36 10 5 15 14 11 19 -3 5 0 22 7 38 9 21 18 27 33 23 14 -4 18 -1 14 9 -3 8
0 23 7 33 11 15 16 15 33 5 30 -19 55 5 49 45 -2 17 0 38 6 47 16 26 0 62 -43
94 -23 18 -39 39 -40 51 0 12 -17 37 -37 55 -21 19 -47 52 -58 74 -21 41 -39
51 -65 36z m-286 -316 c3 -9 0 -15 -8 -15 -8 0 -16 7 -20 15 -3 9 0 15 8 15 8
0 16 -7 20 -15z"/>
<path d="M5195 1615 c-32 -30 -66 -57 -76 -60 -11 -4 -19 -11 -19 -16 0 -5 -5
-9 -11 -9 -12 0 -55 -31 -97 -69 -23 -22 -35 -24 -109 -23 -45 0 -85 -3 -88
-8 -7 -11 22 -33 34 -26 5 4 13 0 18 -8 4 -8 26 -28 48 -46 37 -29 40 -30 52
-14 14 19 17 10 14 -28 -1 -10 3 -18 8 -18 6 0 11 -8 11 -18 0 -23 38 -55 57
-48 12 5 14 1 10 -15 -8 -28 9 -59 31 -59 12 0 22 -14 31 -44 7 -25 19 -47 27
-50 20 -8 64 11 64 27 0 7 11 24 25 37 14 13 25 29 25 35 0 6 11 18 25 25 14
7 25 17 25 22 0 4 14 8 30 8 18 0 33 6 36 15 4 8 16 15 29 15 30 0 62 35 47
53 -8 10 1 20 39 46 46 32 61 51 40 51 -5 0 -7 8 -5 18 5 19 -39 73 -74 91
-12 7 -20 16 -17 22 4 5 -2 21 -13 37 -10 15 -22 35 -25 45 -4 9 -17 17 -29
17 -21 0 -34 6 -85 37 -18 11 -27 6 -78 -42z"/>
<path d="M2181 1624 c0 -11 3 -14 6 -6 3 7 2 16 -1 19 -3 4 -6 -2 -5 -13z"/>
<path d="M4127 1439 c8 -8 16 -8 30 0 16 9 14 10 -11 11 -22 0 -27 -3 -19 -11z"/>
<path d="M2120 1424 c0 -8 7 -22 15 -31 18 -18 12 -31 -7 -16 -17 14 -68 22
-68 12 0 -5 -9 -9 -20 -9 -12 0 -26 -12 -36 -32 -16 -30 -15 -32 5 -48 19 -14
21 -19 11 -45 -6 -17 -9 -47 -6 -68 5 -26 2 -45 -9 -60 -8 -12 -15 -32 -15
-44 0 -23 8 -27 43 -24 9 1 17 -3 17 -8 0 -6 -4 -11 -10 -11 -13 0 -13 -37 1
-45 6 -4 13 2 16 14 5 21 27 28 37 12 3 -5 21 -9 40 -8 18 0 40 -6 49 -14 8
-9 28 -27 44 -40 17 -14 33 -38 37 -55 7 -26 9 -27 20 -12 11 15 14 15 36 -3
31 -23 56 -24 69 -1 8 14 10 10 11 -20 0 -50 18 -58 25 -11 3 21 10 46 16 55
5 10 9 23 9 31 0 7 9 29 20 50 11 21 18 43 14 49 -4 5 -3 13 2 17 30 21 59
191 33 191 -6 0 -9 9 -6 20 5 20 1 23 -60 35 -18 4 -45 20 -60 36 -16 16 -36
29 -45 29 -10 0 -18 7 -18 15 0 10 -10 15 -30 15 -16 0 -30 5 -30 10 0 6 -11
10 -25 10 -14 0 -25 5 -25 10 0 6 -22 10 -50 10 -39 0 -50 -4 -50 -16z m-57
-71 c-7 -2 -13 -14 -13 -26 0 -14 -3 -18 -10 -11 -15 15 -2 44 19 43 10 0 11
-2 4 -6z"/>
<path d="M1807 1293 c-15 -14 -6 -34 19 -43 26 -10 26 -11 23 -98 l-4 -87 25
0 c20 0 26 6 28 28 2 17 -1 27 -10 27 -10 0 -10 3 1 9 12 8 13 14 3 36 -7 14
-12 37 -12 50 0 19 6 24 33 27 46 4 40 22 -10 26 -23 2 -47 10 -53 18 -13 15
-32 18 -43 7z"/>
<path d="M2768 1244 c-11 -11 1 -24 23 -24 25 0 25 -30 -1 -37 -20 -5 -29 -33
-10 -33 15 0 12 -38 -2 -43 -9 -3 -12 -28 -11 -91 l3 -86 -26 6 c-30 8 -53
-17 -54 -58 0 -25 3 -28 35 -28 34 0 35 -1 35 -42 0 -24 4 -49 9 -56 4 -7 34
-16 67 -19 35 -3 71 -14 88 -26 24 -17 47 -21 138 -22 60 -1 123 1 141 4 31 7
32 9 42 76 6 38 16 70 23 73 6 2 12 15 12 28 0 14 7 35 15 48 18 27 10 56 -15
56 -21 0 -32 34 -17 49 17 17 27 13 37 -15 6 -14 14 -22 20 -19 19 12 10 41
-19 62 -25 19 -42 22 -145 22 -64 1 -124 5 -134 11 -9 5 -35 17 -57 26 -22 10
-52 26 -66 36 -23 15 -28 16 -39 3 -6 -7 -18 -11 -25 -9 -17 7 -8 34 11 34 9
0 14 12 14 35 0 23 -5 35 -14 35 -7 0 -26 3 -42 6 -16 3 -32 2 -36 -2z m472
-460 c0 -8 -4 -14 -10 -14 -5 0 -10 9 -10 21 0 11 5 17 10 14 6 -3 10 -13 10
-21z"/>
<path d="M4535 1208 c-22 -6 -56 -11 -75 -13 -19 -1 -53 -11 -75 -21 -22 -10
-60 -18 -85 -18 -43 -1 -45 -2 -46 -31 -1 -16 -3 -37 -5 -45 -2 -9 4 -16 19
-18 25 -4 30 -27 7 -36 -20 -7 -19 -32 3 -54 9 -9 18 -35 19 -57 4 -75 10 -97
27 -107 13 -7 14 -13 6 -23 -7 -8 -7 -15 -1 -19 5 -4 12 -2 16 4 3 5 14 10 23
9 11 0 12 -3 5 -6 -7 -2 -13 -13 -13 -24 0 -26 34 -25 71 2 22 16 38 19 63 15
25 -5 39 -1 59 14 14 11 37 20 51 20 14 0 46 13 72 30 30 19 51 26 58 21 16
-13 67 -1 73 17 4 8 1 23 -6 33 -6 11 -7 19 -2 19 5 0 8 28 7 63 -4 82 -4 80
-21 73 -14 -5 -18 3 -13 22 1 4 8 6 15 4 19 -4 16 26 -4 46 -12 12 -18 13 -21
4 -7 -23 -21 -12 -24 19 -6 59 -94 84 -203 57z"/>
<path d="M3516 1055 c-9 -9 -14 -30 -13 -52 2 -30 7 -38 27 -44 24 -7 24 -7 3
-8 -27 -1 -30 -26 -6 -40 17 -9 17 -10 0 -28 -26 -29 -24 -134 3 -158 13 -11
19 -29 19 -49 -1 -24 -3 -26 -6 -8 -3 14 -12 22 -24 22 -16 0 -20 -6 -17 -27
l3 -28 109 -8 c72 -5 113 -4 120 3 5 5 41 10 78 10 76 0 143 13 206 41 23 10
51 19 61 19 17 0 16 3 -3 45 -18 39 -22 42 -28 24 -14 -36 -33 -15 -36 39 -3
43 0 51 12 46 22 -8 35 3 29 26 -5 19 -37 28 -46 13 -2 -5 -2 -1 1 7 14 46 12
55 -24 78 -19 12 -41 22 -48 22 -6 0 -17 5 -23 11 -5 5 -35 13 -66 16 -33 3
-55 10 -54 17 3 16 -95 34 -101 18 -2 -7 -9 -9 -15 -5 -7 4 -42 8 -79 10 -49
2 -71 -1 -82 -12z"/>
<path d="M1855 900 c-11 -17 3 -28 30 -22 32 6 33 32 1 32 -14 0 -28 -4 -31
-10z"/>
<path d="M3987 416 l-37 -12 44 -13 c50 -14 66 -9 66 20 0 22 -16 23 -73 5z"/>
<path d="M3516 354 c-9 -24 -9 -24 36 -24 43 0 42 8 -4 28 -21 9 -27 8 -32 -4z"/>
</g>
</svg>
