<?xml version="1.0" encoding="utf-8"?>
<!-- Generator: Adobe Illustrator 24.1.2, SVG Export Plug-In . SVG Version: 6.00 Build 0)  -->
<svg version="1.1" id="Layer_1" xmlns="http://www.w3.org/2000/svg" xmlns:xlink="http://www.w3.org/1999/xlink" x="0px" y="0px"
	 viewBox="0 0 335.4 67.8" style="enable-background:new 0 0 335.4 67.8;" xml:space="preserve">
<style type="text/css">
	.st0{fill:#307AF0;}
	.st1{enable-background:new    ;}
</style>
<path class="st0" d="M40.9,3.6C43,4.3,45,5.1,47,5.9c2.1,0.8,4,1.6,6,2.5c1,0.4,2,0.9,3,1.4s1.9,0.9,2.9,1.5c1,0.5,1.9,1,2.8,1.6
	c0.9,0.6,1.9,1.2,2.7,1.8c0.9,0.7,1.8,1.4,2.6,2.2c0.4,0.4,0.8,0.9,1.2,1.4c0.2,0.3,0.3,0.5,0.5,0.8c0.1,0.3,0.3,0.6,0.4,0.9
	c0.5,1.4,0.4,2.9-0.4,4.2c-0.4,0.6-0.9,1.2-1.4,1.6s-1,0.8-1.6,1.1c-1,0.6-2.2,1.1-3.3,1.5s-2.2,0.7-3.4,1c-1.1,0.3-2.3,0.5-3.4,0.7
	c-0.5,0.1-1.1,0.1-1.7,0.3c-0.5,0.1-1.1,0.1-1.8,0.2h0.2c-4.2,0.7-8.4,1.5-12.6,2.3s-8.4,1.7-12.5,2.6c-4.1,0.9-8.1,1.8-12.1,2.8
	c-1,0.3-2,0.6-2.9,0.8c-0.9,0.3-1.7,0.6-2.5,0.9c-0.3,0.1-0.5,0.2-0.7,0.4l0,0l0.1-0.1c0.2-0.1,0.3-0.2,0.5-0.4
	c0.3-0.1,0.4-0.4,0.6-0.6c0.1-0.1,0.1-0.1,0.1-0.2c0.1-0.1,0.1-0.2,0.2-0.3c0.1-0.1,0.1-0.2,0.1-0.4s0.1-0.3,0.1-0.4
	s0.1-0.3,0.1-0.5c0-0.3,0-0.5,0-0.7c0-0.4-0.1-0.7-0.1-1c-0.1-0.1-0.1-0.4-0.2-0.5c-0.1-0.1-0.1-0.3-0.2-0.4
	c-0.1-0.1-0.1-0.3-0.3-0.4c-0.1-0.1-0.1-0.1-0.2-0.3c-0.2-0.3-0.4-0.5-0.8-0.7c-0.1-0.1-0.1-0.1-0.3-0.1v-0.1l-0.1-0.1l-0.1-0.1
	L8.4,33h0.1c-0.1-0.1-0.1-0.1,0.1,0c0.3,0.1,0.6,0.1,1,0.1l3,0.2c0.3,0,0.5,0.1,0.8,0.1l0.8,0.1l1.5,0.1c1,0.1,2.1,0.1,3,0.1
	c1,0,2.1,0.1,3.2,0.1h3.2l3.2-0.1c2.1-0.1,4.2-0.1,6.3-0.2c2.1-0.1,4.2-0.1,6.3-0.3c2.1-0.1,4.2-0.3,6.3-0.4
	c2.1-0.1,4.2-0.4,6.2-0.5c1-0.1,2.1-0.1,3.1-0.3c0.5-0.1,1-0.1,1.5-0.1l0.7-0.1c0.1-0.1,0.1-0.1,0.3-0.1l2.5,14.7
	c-0.4,0.1-1,0.1-1.4,0.1l-0.9,0.1c-0.6,0-1.2,0-1.7,0.1h-3.3c-2.2,0-4.4-0.1-6.6-0.1c-2.2-0.1-4.4-0.1-6.6-0.1
	c-2.2-0.1-4.4-0.1-6.6-0.3c-2.2-0.1-4.4-0.3-6.6-0.4l-3.3-0.3l-3.3-0.3c-1.1-0.1-2.2-0.2-3.3-0.4s-2.2-0.3-3.4-0.4L12.8,44l-0.9-0.1
	c-0.3-0.1-0.5-0.1-0.8-0.1l-3.3-0.6c-0.6-0.1-1.3-0.3-2.1-0.5c-0.5-0.1-1-0.3-1.4-0.5L4,42.1L3.7,42l-0.3-0.1L3,41.6l-0.1-0.1
	l-0.3-0.2c-0.1-0.1-0.3-0.1-0.4-0.3c-0.4-0.3-0.8-0.6-1-0.9c-0.1-0.1-0.1-0.2-0.3-0.4c-0.1-0.1-0.2-0.3-0.3-0.4
	c-0.1-0.1-0.1-0.3-0.3-0.5s-0.1-0.4-0.2-0.6c-0.2-0.8-0.2-1.6,0-2.4c0.1-0.1,0.1-0.4,0.1-0.5c0.1-0.1,0.2-0.2,0.3-0.4
	c0.1-0.1,0.1-0.3,0.2-0.4c0.1-0.1,0.1-0.1,0.2-0.3c0.3-0.3,0.5-0.6,0.8-0.9c0.3-0.3,0.7-0.6,1-0.8c0.1-0.1,0.3-0.1,0.4-0.3L3.6,32
	c0.8-0.4,1.4-0.7,2.2-0.9c1.2-0.4,2.3-0.7,3.6-0.9c1.2-0.2,2.2-0.4,3.3-0.7c4.4-0.7,8.7-1.3,13-1.8s8.6-0.9,12.9-1.4
	c4.3-0.4,8.6-0.8,12.9-1.2h0.2c0.4,0,1,0,1.5-0.1s1-0.1,1.5-0.1c1-0.1,2.1-0.1,3.1-0.4c1-0.1,2-0.4,3-0.6c0.9-0.2,1.9-0.5,2.7-0.9
	c0.8-0.3,1.4-0.7,1.9-1.2c0.1-0.1,0.3-0.4,0.3-0.7c0.1-0.3,0.1-0.6,0-0.8c-0.3-0.8-0.6-1.5-1.2-2.1c-0.6-0.7-1.2-1.5-2-2
	c-0.8-0.7-1.5-1.3-2.3-1.9c-0.8-0.6-1.7-1.2-2.5-1.8s-1.9-1.1-2.7-1.6c-0.9-0.5-1.9-1-2.7-1.6c-1.9-1-3.7-2-5.6-3S42.9,4.6,40.9,3.6
	z"/>
<rect x="52.6" y="30.9" class="st0" width="16.5" height="17.7"/>
<path class="st0" d="M73.7,31.3L73.7,31.3c1.4,0,2.5,1,2.5,2.3l0,0v11.5c0,1.2-1.2,2.3-2.5,2.3l0,0l0,0c-1.4,0-2.5-1-2.5-2.3l0,0
	V33.7C71.2,32.4,72.3,31.3,73.7,31.3L73.7,31.3z"/>
<path class="st0" d="M80.9,30.3L80.9,30.3c1.4,0,2.5,1,2.5,2.3l0,0v13.7c0,1.2-1.2,2.3-2.5,2.3l0,0l0,0c-1.4,0-2.5-1-2.5-2.3l0,0
	V32.6C78.4,31.3,79.5,30.3,80.9,30.3z"/>
<path class="st0" d="M88.2,29.3L88.2,29.3c1.4,0,2.5,1,2.5,2.3l0,0v16.1c0,1.2-1.2,2.3-2.5,2.3l0,0l0,0c-1.4,0-2.5-1-2.5-2.3l0,0
	v-16C85.6,30.4,86.8,29.3,88.2,29.3C88.1,29.3,88.1,29.3,88.2,29.3z"/>
<path class="st0" d="M96.8,27.3L96.8,27.3c1.4,0,2.5,1,2.5,2.3l0,0v19.5c0,1.2-1.2,2.3-2.5,2.3l0,0l0,0c-1.4,0-2.5-1-2.5-2.3l0,0
	V29.6C94.2,28.4,95.4,27.3,96.8,27.3L96.8,27.3z"/>
<polygon class="st0" points="130.5,47.2 130.5,31.9 102.8,29.1 102.8,50.1 103.4,50.1 "/>
<g class="st1">
	<path class="st0" d="M170,1.4v13.3h-10.3v53.1h-17.3V14.7h-10.2V1.4H170z"/>
	<path class="st0" d="M209.2,56.4v11.3h-36.5v-9.5C183.5,40.6,190,29.7,192,25.5s3.1-7.5,3.1-9.8c0-1.8-0.3-3.2-0.9-4
		s-1.6-1.3-2.8-1.3s-2.2,0.5-2.8,1.5s-0.9,2.9-0.9,5.9V24h-14.8v-2.4c0-3.7,0.2-6.7,0.6-8.8c0.4-2.1,1.3-4.3,2.8-6.3
		c1.5-2.1,3.5-3.7,5.9-4.7c2.4-1.1,5.3-1.6,8.7-1.6c6.6,0,11.6,1.6,15,4.9s5.1,7.4,5.1,12.4c0,3.8-1,7.8-2.9,12.1
		c-1.9,4.2-7.5,13.2-16.8,27h17.9V56.4z"/>
	<path class="st0" d="M216.1,1.4h28.8v13.3h-11.5v12.6h10.8v12.6h-10.8v14.6h12.7v13.3h-29.9V1.4H216.1z"/>
</g>
<polygon class="st0" points="502,57.8 502.4,57.8 502.4,57.5 "/>
<polygon class="st0" points="255.7,25.7 255.7,49.2 275.8,49.2 287.7,44.2 287.7,44.2 335.4,44.2 335.4,25.7 "/>
<polygon class="st0" points="335.4,25.7 288.5,12.6 285.3,15.4 328.9,31.9 335.4,26.1 "/>
</svg>
