<?xml version="1.0" encoding="utf-8"?>
<!-- Generator: Adobe Illustrator 24.1.2, SVG Export Plug-In . SVG Version: 6.00 Build 0)  -->
<svg version="1.1" id="Layer_1" xmlns="http://www.w3.org/2000/svg" xmlns:xlink="http://www.w3.org/1999/xlink" x="0px" y="0px"
	 viewBox="0 0 453 83.3" style="enable-background:new 0 0 453 83.3;" xml:space="preserve">
<style type="text/css">
	.st0{fill:#3991DD;}
	.st1{font-family:'Impact';}
	.st2{font-size:84px;}
</style>
<path class="st0" d="M61.7,0c3,1,5.9,2,8.9,3.1c3,1.1,5.8,2.2,8.7,3.4c1.5,0.6,2.9,1.2,4.3,1.9c1.4,0.7,2.8,1.3,4.2,2
	c1.4,0.7,2.8,1.4,4.1,2.2c1.3,0.8,2.7,1.6,4,2.5c1.3,0.9,2.6,1.9,3.8,3c0.6,0.6,1.2,1.2,1.7,1.9c0.3,0.4,0.5,0.7,0.7,1.1
	c0.2,0.4,0.4,0.8,0.6,1.2c0.8,1.9,0.6,4-0.6,5.7c-0.6,0.8-1.3,1.6-2.1,2.2c-0.7,0.5-1.5,1.1-2.3,1.5c-1.5,0.8-3.2,1.5-4.8,2
	c-1.6,0.5-3.2,1-4.9,1.4c-1.6,0.4-3.3,0.7-4.9,1c-0.8,0.1-1.6,0.2-2.5,0.4c-0.8,0.1-1.6,0.2-2.6,0.3h0.3c-6.1,1-12.2,2.1-18.3,3.2
	c-6.1,1.1-12.2,2.3-18.2,3.5c-6,1.2-11.8,2.5-17.6,3.9c-1.4,0.4-2.9,0.8-4.2,1.1c-1.3,0.4-2.5,0.8-3.7,1.3c-0.4,0.1-0.7,0.3-1,0.5
	l0,0l0.1-0.1c0.3-0.1,0.5-0.3,0.7-0.5c0.4-0.2,0.6-0.5,0.9-0.8c0.1-0.1,0.1-0.2,0.2-0.3c0.1-0.1,0.2-0.3,0.3-0.4
	c0.1-0.1,0.1-0.3,0.2-0.5c0.1-0.2,0.1-0.4,0.2-0.6s0.1-0.4,0.1-0.7C18,46,18,45.7,18,45.5c0-0.5-0.1-1-0.2-1.4
	c-0.1-0.2-0.1-0.5-0.3-0.7c-0.1-0.2-0.1-0.4-0.3-0.5c-0.1-0.2-0.2-0.4-0.4-0.5c-0.1-0.1-0.2-0.2-0.3-0.4c-0.3-0.4-0.6-0.7-1.1-1
	c-0.1-0.1-0.2-0.2-0.4-0.2L15,40.6l-0.2-0.1l-0.1-0.1l-0.1-0.1h-0.1c-0.1-0.1-0.1-0.1,0.1,0c0.4,0.1,0.9,0.1,1.5,0.2l4.4,0.3
	c0.4,0,0.8,0.1,1.1,0.1l1.1,0.1l2.2,0.1c1.4,0.1,3,0.1,4.4,0.1s3,0.1,4.6,0.1h4.6l4.6-0.1c3-0.1,6.1-0.1,9.2-0.3s6.1-0.2,9.2-0.4
	s6.1-0.4,9.2-0.6c3.1-0.2,6.1-0.5,9.1-0.7c1.5-0.1,3-0.2,4.5-0.4c0.7-0.1,1.5-0.1,2.2-0.2l1-0.1c0.1-0.1,0.2-0.1,0.4-0.1l3.7,20.1
	c-0.6,0.1-1.4,0.1-2,0.1l-1.3,0.1c-0.9,0-1.7,0-2.5,0.1h-4.8c-3.2,0-6.4-0.1-9.6-0.1c-3.2-0.1-6.4-0.2-9.6-0.2
	c-3.2-0.1-6.4-0.2-9.6-0.4c-3.2-0.2-6.4-0.4-9.6-0.6l-4.8-0.4l-4.8-0.4c-1.6-0.1-3.2-0.3-4.8-0.5s-3.2-0.4-4.9-0.6l-2.5-0.3
	l-1.3-0.2c-0.4-0.1-0.8-0.1-1.2-0.2l-4.8-0.8c-0.9-0.2-1.9-0.4-3.1-0.7c-0.7-0.2-1.4-0.4-2.1-0.7l-0.4-0.1l-0.4-0.2l-0.4-0.2
	l-0.5-0.2l-0.2-0.1L6,51.6c-0.2-0.1-0.4-0.2-0.6-0.4c-0.6-0.4-1.1-0.8-1.5-1.3c-0.1-0.2-0.2-0.3-0.4-0.5c-0.1-0.2-0.3-0.4-0.4-0.6
	c-0.1-0.2-0.2-0.4-0.4-0.7s-0.2-0.5-0.3-0.8c-0.3-1.1-0.3-2.2,0-3.3c0.1-0.2,0.1-0.5,0.2-0.7C2.8,43.1,2.9,43,3,42.7
	c0.1-0.2,0.2-0.4,0.3-0.5c0.1-0.2,0.2-0.2,0.3-0.4c0.4-0.4,0.7-0.8,1.1-1.2c0.5-0.4,1-0.8,1.5-1.1c0.2-0.1,0.4-0.2,0.6-0.4l0.6-0.2
	c1.1-0.5,2.1-0.9,3.2-1.2c1.7-0.5,3.4-0.9,5.2-1.2c1.7-0.3,3.2-0.6,4.8-0.9c6.4-1,12.6-1.8,18.9-2.5s12.5-1.3,18.8-1.9
	c6.3-0.5,12.5-1.1,18.8-1.6h0.3c0.6,0,1.5,0,2.2-0.1c0.7-0.1,1.5-0.1,2.2-0.1c1.5-0.1,3-0.2,4.5-0.5c1.5-0.2,2.9-0.5,4.3-0.8
	c1.3-0.3,2.7-0.7,3.9-1.2c1.1-0.4,2-1,2.7-1.7c0.2-0.2,0.4-0.6,0.5-0.9c0.1-0.4,0.1-0.8,0-1.1c-0.4-1.1-0.9-2-1.7-2.9
	c-0.9-1-1.8-2-2.9-2.8c-1.1-0.9-2.2-1.8-3.4-2.6c-1.2-0.8-2.5-1.6-3.7-2.4S83.3,11,82,10.3c-1.3-0.7-2.7-1.4-4-2.2
	c-2.7-1.4-5.4-2.8-8.2-4.1S64.6,1.3,61.7,0z"/>
<rect x="78.7" y="37.3" class="st0" width="24" height="24.2"/>
<path class="st0" d="M109.5,37.9L109.5,37.9c2,0,3.7,1.4,3.7,3.2l0,0v15.7c0,1.7-1.7,3.2-3.7,3.2l0,0l0,0c-2,0-3.7-1.4-3.7-3.2l0,0
	V41.1C105.8,39.4,107.5,37.9,109.5,37.9L109.5,37.9z"/>
<path class="st0" d="M120,36.5L120,36.5c2,0,3.7,1.4,3.7,3.2l0,0v18.7c0,1.7-1.7,3.2-3.7,3.2l0,0l0,0c-2,0-3.7-1.4-3.7-3.2l0,0V39.7
	C116.3,37.9,118,36.5,120,36.5z"/>
<path class="st0" d="M130.6,35.2L130.6,35.2c2,0,3.7,1.4,3.7,3.2l0,0v22.1c0,1.7-1.7,3.2-3.7,3.2l0,0l0,0c-2,0-3.7-1.4-3.7-3.2l0,0
	V38.4C126.8,36.6,128.5,35.2,130.6,35.2C130.5,35.2,130.5,35.2,130.6,35.2z"/>
<path class="st0" d="M143.1,32.4L143.1,32.4c2,0,3.7,1.4,3.7,3.2l0,0v26.7c0,1.7-1.7,3.2-3.7,3.2l0,0l0,0c-2,0-3.7-1.4-3.7-3.2l0,0
	V35.6C139.4,33.9,141.1,32.4,143.1,32.4L143.1,32.4z"/>
<polygon class="st0" points="192.2,59.7 192.2,38.7 151.8,34.8 151.8,63.6 152.8,63.6 "/>
<text transform="matrix(1 0 0 1 193.4939 83.2824)" class="st0 st1 st2">T2E</text>
<polygon class="st0" points="563.7,73.3 564.1,73.3 564.1,73 "/>
<polygon class="st0" points="319.8,32.8 319.8,64.1 352.3,64.1 371.7,57.5 371.7,57.5 449,57.5 449,32.8 "/>
<polygon class="st0" points="449,32.8 373,15.3 367.8,19.1 438.4,41.1 449,33.3 "/>
</svg>
