<?xml version="1.0" encoding="utf-8"?>
<!-- Generator: Adobe Illustrator 24.1.2, SVG Export Plug-In . SVG Version: 6.00 Build 0)  -->
<svg version="1.1" id="Layer_1" xmlns="http://www.w3.org/2000/svg" xmlns:xlink="http://www.w3.org/1999/xlink" x="0px" y="0px"
	 viewBox="0 0 756.9 191.1" style="enable-background:new 0 0 756.9 191.1;" xml:space="preserve">
<style type="text/css">
	.st0{fill:#3991DD;}
	.st1{font-family:'Impact';}
	.st2{font-size:84px;}
</style>
<path class="st0" d="M84.4,1.3C88.6,3,92.8,4.7,97,6.5s8.3,3.6,12.4,5.6c2.1,1,4.1,2,6.1,3.1s4,2.1,6,3.3c2,1.1,4,2.3,5.9,3.6
	c1.9,1.3,3.9,2.6,5.7,4.1c1.9,1.5,3.7,3.2,5.4,5c0.9,1,1.7,2,2.4,3.1c0.4,0.6,0.7,1.2,1,1.8s0.6,1.3,0.8,2c1.1,3.2,0.8,6.7-0.9,9.6
	c-0.8,1.3-1.8,2.6-3,3.6c-1,0.9-2.1,1.8-3.3,2.5c-2.2,1.4-4.5,2.5-6.9,3.4c-2.3,0.9-4.6,1.6-7,2.3c-2.3,0.6-4.7,1.2-7,1.6
	c-1.2,0.2-2.3,0.4-3.5,0.6s-2.3,0.4-3.7,0.5h0.4c-8.7,1.7-17.4,3.5-26.1,5.4s-17.3,3.9-25.9,5.9S39,77.6,30.8,80
	c-2,0.6-4.1,1.3-6,1.9c-1.8,0.6-3.6,1.3-5.3,2.1c-0.5,0.2-1,0.5-1.4,0.8l0,0l0.2-0.1c0.4-0.2,0.7-0.5,1-0.8c0.5-0.4,0.9-0.8,1.3-1.3
	c0.1-0.2,0.2-0.3,0.3-0.5s0.3-0.5,0.4-0.7s0.2-0.5,0.3-0.8s0.2-0.7,0.3-1c0.1-0.3,0.1-0.7,0.2-1.1s0.1-0.8,0.1-1.2
	c0-0.8-0.1-1.6-0.3-2.4c-0.1-0.4-0.2-0.8-0.4-1.1c-0.1-0.3-0.2-0.6-0.4-0.9c-0.1-0.3-0.3-0.6-0.5-0.8c-0.1-0.2-0.3-0.4-0.4-0.6
	c-0.4-0.6-0.9-1.1-1.5-1.6c-0.1-0.1-0.3-0.3-0.5-0.4l-0.4-0.3L17.5,69l-0.2-0.1l-0.2-0.1H17c-0.2-0.1-0.1-0.1,0.2,0
	c0.5,0.1,1.3,0.2,2.1,0.3l6.3,0.5c0.5,0,1.1,0.1,1.6,0.1l1.5,0.1l3.1,0.1c2,0.1,4.2,0.2,6.3,0.2s4.3,0.1,6.5,0.1h6.5l6.5-0.1
	c4.3-0.1,8.7-0.2,13.1-0.5s8.7-0.4,13.1-0.7s8.7-0.6,13.1-1s8.7-0.8,13-1.2c2.1-0.2,4.3-0.4,6.4-0.7c1-0.1,2.1-0.2,3.1-0.4l1.4-0.2
	c0.2-0.1,0.3-0.1,0.5-0.1l5.3,33.6c-0.9,0.1-2,0.2-2.8,0.2l-1.9,0.1c-1.3,0-2.4,0-3.6,0.1h-6.9c-4.6,0-9.1-0.1-13.7-0.2
	c-4.5-0.1-9.1-0.3-13.6-0.4c-4.5-0.2-9.1-0.4-13.6-0.7s-9.1-0.6-13.6-1l-6.8-0.6l-6.8-0.7c-2.3-0.2-4.6-0.5-6.9-0.8s-4.6-0.6-7-1
	l-3.5-0.5L24,93c-0.6-0.1-1.1-0.2-1.7-0.3l-6.9-1.3c-1.3-0.3-2.7-0.6-4.4-1.1c-1-0.3-2-0.7-3-1.1L7.5,89L7,88.7l-0.6-0.3L5.7,88
	l-0.3-0.2L5,87.5c-0.3-0.2-0.5-0.4-0.8-0.6c-0.8-0.7-1.5-1.4-2.1-2.2c-0.2-0.3-0.3-0.5-0.5-0.8s-0.4-0.7-0.6-1
	c-0.2-0.4-0.3-0.7-0.5-1.1s-0.3-0.9-0.4-1.4c-0.4-1.8-0.4-3.7,0-5.5c0.1-0.4,0.2-0.8,0.3-1.2s0.2-0.6,0.4-1c0.1-0.3,0.3-0.6,0.4-0.9
	s0.3-0.4,0.4-0.7c0.5-0.7,1-1.4,1.6-2c0.7-0.7,1.4-1.3,2.2-1.9C5.7,67,6,66.8,6.3,66.6l0.8-0.4c1.5-0.8,3-1.5,4.6-2
	c2.4-0.8,4.9-1.5,7.4-2c2.4-0.5,4.6-1,6.9-1.5c9.1-1.7,18-3,26.9-4.2s17.8-2.2,26.7-3.1s17.8-1.8,26.7-2.7h0.4c0.9,0,2.1,0,3.1-0.1
	s2.1-0.1,3.2-0.2c2.1-0.2,4.3-0.4,6.4-0.8c2.1-0.3,4.1-0.8,6.1-1.3c1.9-0.5,3.8-1.2,5.5-2c1.5-0.6,2.8-1.6,3.8-2.8
	c0.3-0.4,0.6-1,0.7-1.5c0.2-0.6,0.2-1.3,0-1.9c-0.5-1.8-1.3-3.4-2.4-4.8c-1.3-1.7-2.6-3.3-4.1-4.7c-1.6-1.5-3.2-3-4.9-4.3
	c-1.7-1.3-3.5-2.7-5.3-4s-3.7-2.6-5.5-3.8c-1.9-1.2-3.8-2.4-5.7-3.6c-3.8-2.4-7.7-4.6-11.7-6.8S88.4,3.4,84.4,1.3z"/>
<rect x="108.6" y="63.6" class="st0" width="34.1" height="40.5"/>
<path class="st0" d="M152.4,64.7L152.4,64.7c2.9,0,5.3,2.4,5.3,5.3l0,0v26.3c0,2.9-2.4,5.3-5.3,5.3l0,0l0,0c-2.9,0-5.3-2.4-5.3-5.3
	l0,0V70C147.1,67.1,149.5,64.7,152.4,64.7L152.4,64.7z"/>
<path class="st0" d="M167.4,62.3L167.4,62.3c2.9,0,5.3,2.4,5.3,5.3l0,0v31.2c0,2.9-2.4,5.3-5.3,5.3l0,0l0,0c-2.9,0-5.3-2.4-5.3-5.3
	l0,0V67.6C162.1,64.7,164.5,62.3,167.4,62.3z"/>
<path class="st0" d="M182.4,60.1L182.4,60.1c2.9,0,5.3,2.4,5.3,5.3l0,0v36.9c0,2.9-2.4,5.3-5.3,5.3l0,0l0,0c-2.9,0-5.3-2.3-5.3-5.3
	l0,0V65.4C177,62.4,179.4,60.1,182.4,60.1C182.3,60.1,182.3,60.1,182.4,60.1z"/>
<path class="st0" d="M200.2,55.5L200.2,55.5c2.9,0,5.3,2.4,5.3,5.3l0,0v44.7c0,2.9-2.4,5.3-5.3,5.3l0,0l0,0c-2.9,0-5.3-2.4-5.3-5.3
	l0,0V60.8C194.9,57.9,197.3,55.5,200.2,55.5L200.2,55.5z"/>
<polygon class="st0" points="270.1,101.1 270.1,66 212.6,59.4 212.6,107.6 214,107.6 "/>
<text transform="matrix(1 0 0 1 322.3099 116.2598)" class="st0 st1 st2">TECH</text>
<text transform="matrix(1 0 0 1 187.6599 191.06)" class="st0 st1 st2">TO EMPOWER</text>
<polygon class="st0" points="650.2,104.3 650.6,104.3 650.6,104 "/>
<polygon class="st0" points="579.4,50.3 579.4,114.3 624,114.3 650.7,100.8 650.7,100.9 756.9,100.9 756.9,50.3 "/>
<polygon class="st0" points="756.9,48.7 652.5,11 645.4,19.2 742.3,66.6 756.9,49.7 "/>
</svg>
