<svg id="Layer_1" data-name="Layer 1" xmlns="http://www.w3.org/2000/svg" viewBox="0 0 756.85 510.89"><defs><style>.cls-1{fill:#85cb76;}.cls-2{fill:#113061;}.cls-3{fill:#fff;}.cls-4,.cls-6{fill:#18a8c9;}.cls-5{fill:#1eaacc;}.cls-6{font-size:84px;font-family:Impact, Impact;}</style></defs><title>Tech To Empower</title><circle class="cls-1" cx="411.01" cy="65.04" r="49.93"/><circle class="cls-2" cx="411.01" cy="65.04" r="45.86"/><rect class="cls-3" x="391.74" y="28.99" width="38.54" height="72.09" rx="12" ry="12"/><rect class="cls-2" x="396.47" y="37.01" width="29.09" height="45.39"/><circle class="cls-2" cx="411.01" cy="93.13" r="3.48"/><rect class="cls-4" x="405.67" width="10.68" height="6.54"/><rect class="cls-4" x="427.74" y="156.79" width="10.68" height="6.54" transform="translate(-64.72 -37.14) rotate(-15)"/><rect class="cls-4" x="412.84" y="162.96" width="10.68" height="6.54" transform="translate(-65.14 76.68) rotate(-30)"/><rect class="cls-4" x="400.05" y="172.77" width="10.68" height="6.54" transform="translate(-43.8 183.53) rotate(-45)"/><rect class="cls-4" x="390.23" y="185.57" width="10.68" height="6.54" transform="translate(-3.81 282.31) rotate(-60)"/><rect class="cls-4" x="384.06" y="200.46" width="10.68" height="6.54" transform="translate(53.77 372.46) rotate(-75)"/><rect class="cls-4" x="381.96" y="216.45" width="10.68" height="6.54" transform="translate(129.52 452.34) rotate(-90)"/><rect class="cls-4" x="384.06" y="232.44" width="10.68" height="6.54" transform="matrix(-0.26, -0.97, 0.97, -0.26, 224.46, 518.17)"/><rect class="cls-4" x="390.23" y="247.34" width="10.68" height="6.54" transform="translate(338.27 563.8) rotate(-120)"/><rect class="cls-4" x="400.05" y="260.13" width="10.68" height="6.54" transform="translate(467.74 581.62) rotate(-135)"/><rect class="cls-4" x="412.84" y="269.95" width="10.68" height="6.54" transform="translate(605.68 564.24) rotate(-150)"/><rect class="cls-4" x="427.74" y="276.12" width="10.68" height="6.54" transform="matrix(-0.97, -0.26, 0.26, -0.97, 741.04, 506.66)"/><rect class="cls-4" x="443.73" y="278.22" width="10.68" height="6.54" transform="translate(860.08 408.3) rotate(-180)"/><rect class="cls-4" x="459.71" y="276.12" width="10.68" height="6.54" transform="matrix(-0.97, 0.26, -0.26, -0.97, 948.52, 274.21)"/><rect class="cls-4" x="474.61" y="269.95" width="10.68" height="6.54" transform="translate(994.16 115.17) rotate(150)"/><rect class="cls-4" x="487.41" y="260.13" width="10.68" height="6.54" transform="translate(989.36 -53.45) rotate(135)"/><rect class="cls-4" x="497.22" y="247.34" width="10.68" height="6.54" transform="translate(932.82 -214) rotate(120)"/><rect class="cls-4" x="503.39" y="232.44" width="10.68" height="6.54" transform="translate(830.02 -349.36) rotate(105)"/><rect class="cls-4" x="505.5" y="216.45" width="10.68" height="6.54" transform="translate(692.5 -445.8) rotate(90)"/><rect class="cls-4" x="503.39" y="200.46" width="10.68" height="6.54" transform="translate(535.8 -495.07) rotate(75)"/><rect class="cls-4" x="497.22" y="185.57" width="10.68" height="6.54" transform="translate(376.76 -495.49) rotate(60)"/><rect class="cls-4" x="487.41" y="172.77" width="10.68" height="6.54" transform="translate(230.75 -451.54) rotate(45)"/><rect class="cls-4" x="474.61" y="162.96" width="10.68" height="6.54" transform="translate(109.36 -372.39) rotate(30)"/><rect class="cls-4" x="459.71" y="156.79" width="10.68" height="6.54" transform="translate(19.22 -269.59) rotate(15)"/><rect class="cls-4" x="405.67" width="10.68" height="6.54"/><path class="cls-5" d="M122.4,288.69c4.21,1.67,8.42,3.36,12.6,5.16s8.33,3.64,12.44,5.62c2.06,1,4.1,2,6.13,3.05s4,2.14,6,3.28,4,2.32,5.92,3.6,3.86,2.62,5.74,4.08a43.26,43.26,0,0,1,5.37,4.95,24.48,24.48,0,0,1,2.4,3.07c.38.54.7,1.18,1,1.78a16.44,16.44,0,0,1,.84,2,11.45,11.45,0,0,1-.87,9.6,14.78,14.78,0,0,1-2.91,3.59,22.94,22.94,0,0,1-3.32,2.53,39.73,39.73,0,0,1-6.88,3.4,68.66,68.66,0,0,1-7,2.27c-2.32.64-4.65,1.17-7,1.62q-1.76.34-3.52.63c-1.2.19-2.32.36-3.65.51l.45,0c-8.68,1.72-17.39,3.53-26.06,5.4s-17.32,3.82-25.9,5.88S77.21,364.94,69,367.4c-2,.62-4.06,1.26-6,1.93s-3.82,1.38-5.31,2.09a6,6,0,0,0-1.44.82s0,0,0,0l.18-.09a5.27,5.27,0,0,0,1-.82A8.07,8.07,0,0,0,58.53,370q.15-.24.29-.49c.12-.22.25-.48.36-.72s.21-.51.3-.77.21-.66.29-1a9.13,9.13,0,0,0,.18-1.06,10.51,10.51,0,0,0,.07-1.21,10.63,10.63,0,0,0-.29-2.41,9.31,9.31,0,0,0-.36-1.14,9.19,9.19,0,0,0-.38-.9,9,9,0,0,0-.48-.85c-.15-.25-.26-.41-.41-.61a9.06,9.06,0,0,0-1.5-1.62c-.15-.14-.3-.26-.46-.38l-.38-.27-.3-.19-.19-.12-.17-.09-.08,0c-.19-.11-.07-.08.18-.05.46.07,1.3.18,2.14.27l6.32.51c.55,0,1.13.1,1.65.13l1.55.07,3.1.14c2,.11,4.19.15,6.34.19s4.29.1,6.46.08l6.49,0,6.51-.12c4.35-.13,8.7-.24,13.06-.46s8.72-.45,13.08-.71,8.72-.6,13.08-.95,8.7-.75,13-1.17c2.13-.23,4.32-.44,6.4-.69,1-.12,2.14-.24,3.07-.38l1.45-.2c.24-.06.31-.1.48-.12l5.33,33.58c-.94.09-2,.18-2.84.24l-1.88.06c-1.28,0-2.41,0-3.59.06-2.36,0-4.62,0-6.93,0q-6.86-.05-13.67-.22t-13.62-.45c-4.54-.21-9.08-.41-13.62-.7s-9.09-.61-13.63-1l-6.83-.6-6.84-.71c-2.28-.22-4.57-.52-6.86-.82s-4.56-.57-7-1l-3.54-.54-1.77-.27c-.59-.09-1.11-.2-1.66-.31l-6.91-1.31c-1.34-.29-2.7-.6-4.38-1.12a25.21,25.21,0,0,1-3-1.13l-.46-.21-.54-.28-.56-.31-.66-.4-.32-.21-.41-.29c-.27-.2-.54-.41-.8-.63a13,13,0,0,1-2.07-2.23c-.19-.26-.34-.47-.53-.78s-.4-.68-.57-1-.33-.71-.48-1.09a12.84,12.84,0,0,1-.41-1.34,11.86,11.86,0,0,1,0-5.5,11.48,11.48,0,0,1,.34-1.19c.11-.32.24-.64.38-1s.29-.63.44-.91.26-.45.4-.67a12.83,12.83,0,0,1,1.58-2,14.67,14.67,0,0,1,2.24-1.9c.33-.23.6-.4.87-.56s.52-.31.76-.44a29.46,29.46,0,0,1,4.62-2c2.66-.9,5-1.48,7.38-2s4.64-1,6.92-1.45c9.1-1.71,18-3,26.94-4.16s17.83-2.2,26.73-3.16,17.79-1.84,26.73-2.65l.45,0c.93,0,2.07-.05,3.12-.11s2.14-.14,3.21-.23c2.14-.19,4.27-.44,6.37-.78a59.26,59.26,0,0,0,6.14-1.3,31.25,31.25,0,0,0,5.55-2,10.74,10.74,0,0,0,3.81-2.82,4,4,0,0,0,.73-1.52,4.12,4.12,0,0,0,0-1.92,13.21,13.21,0,0,0-2.4-4.82,37.18,37.18,0,0,0-4.15-4.71c-1.56-1.5-3.19-3-4.91-4.34s-3.49-2.73-5.3-4-3.66-2.57-5.54-3.81-3.77-2.45-5.69-3.63c-3.83-2.37-7.74-4.64-11.7-6.85S126.41,290.8,122.4,288.69Z" transform="translate(-38.05 -154.68)"/><rect class="cls-4" x="108.56" y="196.29" width="34.14" height="40.52"/><rect class="cls-4" x="147.09" y="197.44" width="10.59" height="36.89" rx="5.3" ry="5.3"/><rect class="cls-4" x="162.06" y="194.96" width="10.59" height="41.86" rx="5.3" ry="5.3"/><rect class="cls-4" x="177.03" y="192.76" width="10.59" height="47.52" rx="5.3" ry="5.3"/><rect class="cls-4" x="194.88" y="188.22" width="10.59" height="55.34" rx="5.3" ry="5.3"/><polygon class="cls-4" points="270.02 233.83 270.02 198.72 212.59 192.11 212.59 240.29 213.93 240.29 270.02 233.83"/><text class="cls-6" transform="translate(322.27 248.96)">TECH</text><text class="cls-6" transform="translate(187.62 343.76)">TO EMPOWER</text><polygon class="cls-4" points="650.12 256.99 650.59 256.99 650.59 256.71 650.12 256.99"/><polygon class="cls-4" points="579.36 180.36 579.36 256.99 624 256.99 650.62 240.9 650.68 240.96 756.85 240.96 756.85 180.36 579.36 180.36"/><polygon class="cls-4" points="756.85 180.36 652.41 142.7 645.33 150.89 742.22 198.29 756.85 181.36 756.85 180.36"/></svg>