<?xml version="1.0" encoding="UTF-8" standalone="no"?>
<svg
   xmlns:dc="http://purl.org/dc/elements/1.1/"
   xmlns:cc="http://creativecommons.org/ns#"
   xmlns:rdf="http://www.w3.org/1999/02/22-rdf-syntax-ns#"
   xmlns:svg="http://www.w3.org/2000/svg"
   xmlns="http://www.w3.org/2000/svg"
   xmlns:sodipodi="http://sodipodi.sourceforge.net/DTD/sodipodi-0.dtd"
   xmlns:inkscape="http://www.inkscape.org/namespaces/inkscape"
   inkscape:version="1.0 (4035a4fb49, 2020-05-01)"
   height="344.89001"
   width="756.84998"
   sodipodi:docname="T2EnavbarLogo.svg"
   version="1.1"
   viewBox="0 0 756.85 344.89"
   data-name="Layer 1"
   id="Layer_1">
  <metadata
     id="metadata198">
    <rdf:RDF>
      <cc:Work
         rdf:about="">
        <dc:format>image/svg+xml</dc:format>
        <dc:type
           rdf:resource="http://purl.org/dc/dcmitype/StillImage" />
        <dc:title>Tech To Empower</dc:title>
      </cc:Work>
    </rdf:RDF>
  </metadata>
  <sodipodi:namedview
     inkscape:current-layer="Layer_1"
     inkscape:window-maximized="1"
     inkscape:window-y="-8"
     inkscape:window-x="-8"
     inkscape:cy="231.23521"
     inkscape:cx="378.425"
     inkscape:zoom="1.5538085"
     showgrid="false"
     id="namedview196"
     inkscape:window-height="1017"
     inkscape:window-width="1920"
     inkscape:pageshadow="2"
     inkscape:pageopacity="0"
     guidetolerance="10"
     gridtolerance="10"
     objecttolerance="10"
     borderopacity="1"
     bordercolor="#666666"
     pagecolor="#ffffff" />
  <defs
     id="defs107">
    <style
       id="style105">.cls-1{fill:#85cb76;}.cls-2{fill:#113061;}.cls-3{fill:#fff;}.cls-4,.cls-6{fill:#18a8c9;}.cls-5{fill:#1eaacc;}.cls-6{font-size:84px;font-family:Impact, Impact;}</style>
  </defs>
  <title
     id="title109">Tech To Empower</title>
  <circle
     id="circle111"
     r="49.93"
     cy="65.040001"
     cx="411.01001"
     class="cls-1" />
  <circle
     id="circle113"
     r="45.860001"
     cy="65.040001"
     cx="411.01001"
     class="cls-2" />
  <rect
     id="rect115"
     ry="12"
     rx="12"
     height="72.089996"
     width="38.540001"
     y="28.99"
     x="391.73999"
     class="cls-3" />
  <rect
     id="rect117"
     height="45.389999"
     width="29.09"
     y="37.009998"
     x="396.47"
     class="cls-2" />
  <circle
     id="circle119"
     r="3.48"
     cy="93.129997"
     cx="411.01001"
     class="cls-2" />
  <rect
     y="0"
     id="rect121"
     height="6.54"
     width="10.68"
     x="405.67001"
     class="cls-4" />
  <rect
     id="rect123"
     transform="rotate(-15,-173.41315,227.2286)"
     height="6.54"
     width="10.68"
     y="156.78999"
     x="427.73999"
     class="cls-4" />
  <rect
     id="rect125"
     transform="rotate(-30,110.51683,159.89289)"
     height="6.54"
     width="10.68"
     y="162.96001"
     x="412.84"
     class="cls-4" />
  <rect
     id="rect127"
     transform="rotate(-45,199.64031,144.63628)"
     height="6.54"
     width="10.68"
     y="172.77"
     x="400.04999"
     class="cls-4" />
  <rect
     id="rect129"
     transform="rotate(-60,242.58263,144.45456)"
     height="6.54"
     width="10.68"
     y="185.57001"
     x="390.23001"
     class="cls-4" />
  <rect
     id="rect131"
     transform="rotate(-75,269.58466,151.19279)"
     height="6.54"
     width="10.68"
     y="200.46001"
     x="384.06"
     class="cls-4" />
  <rect
     id="rect133"
     transform="rotate(-90,290.93,161.41)"
     height="6.54"
     width="10.68"
     y="216.45"
     x="381.95999"
     class="cls-4" />
  <rect
     id="rect135"
     transform="matrix(-0.26,-0.97,0.97,-0.26,224.46,518.17)"
     height="6.54"
     width="10.68"
     y="232.44"
     x="384.06"
     class="cls-4" />
  <rect
     id="rect137"
     transform="rotate(-120,331.89004,184.24986)"
     height="6.54"
     width="10.68"
     y="247.34"
     x="390.23001"
     class="cls-4" />
  <rect
     id="rect139"
     transform="rotate(-135,354.32745,193.93787)"
     height="6.54"
     width="10.68"
     y="260.13"
     x="400.04999"
     class="cls-4" />
  <rect
     id="rect141"
     transform="rotate(-150,378.43383,200.97427)"
     height="6.54"
     width="10.68"
     y="269.95001"
     x="412.84"
     class="cls-4" />
  <rect
     id="rect143"
     transform="matrix(-0.97,-0.26,0.26,-0.97,741.04,506.66)"
     height="6.54"
     width="10.68"
     y="276.12"
     x="427.73999"
     class="cls-4" />
  <rect
     id="rect145"
     transform="rotate(180,430.04,204.15)"
     height="6.54"
     width="10.68"
     y="278.22"
     x="443.73001"
     class="cls-4" />
  <rect
     id="rect147"
     transform="matrix(-0.97,0.26,-0.26,-0.97,948.52,274.21)"
     height="6.54"
     width="10.68"
     y="276.12"
     x="459.70999"
     class="cls-4" />
  <rect
     id="rect149"
     transform="rotate(150,481.65015,190.77718)"
     height="6.54"
     width="10.68"
     y="269.95001"
     x="474.60999"
     class="cls-4" />
  <rect
     id="rect151"
     transform="rotate(135,505.74986,178.17817)"
     height="6.54"
     width="10.68"
     y="260.13"
     x="487.41"
     class="cls-4" />
  <rect
     id="rect153"
     transform="rotate(120,528.18648,162.28194)"
     height="6.54"
     width="10.68"
     y="247.34"
     x="497.22"
     class="cls-4" />
  <rect
     id="rect155"
     transform="rotate(105,549.04668,143.76837)"
     height="6.54"
     width="10.68"
     y="232.44"
     x="503.39001"
     class="cls-4" />
  <rect
     id="rect157"
     transform="rotate(90,569.15,123.35)"
     height="6.54"
     width="10.68"
     y="216.45"
     x="505.5"
     class="cls-4" />
  <rect
     id="rect159"
     transform="rotate(75,590.49389,101.59908)"
     height="6.54"
     width="10.68"
     y="200.46001"
     x="503.39001"
     class="cls-4" />
  <rect
     id="rect161"
     transform="rotate(60,617.48693,78.538731)"
     height="6.54"
     width="10.68"
     y="185.57001"
     x="497.22"
     class="cls-4" />
  <rect
     id="rect163"
     transform="rotate(45,660.432,52.76989)"
     height="6.54"
     width="10.68"
     y="172.77"
     x="487.41"
     class="cls-4" />
  <rect
     id="rect165"
     transform="rotate(30,749.5692,17.873538)"
     height="6.54"
     width="10.68"
     y="162.96001"
     x="474.60999"
     class="cls-4" />
  <rect
     id="rect167"
     transform="rotate(15,1033.4797,-61.799803)"
     height="6.54"
     width="10.68"
     y="156.78999"
     x="459.70999"
     class="cls-4" />
  <rect
     y="0"
     id="rect169"
     height="6.54"
     width="10.68"
     x="405.67001"
     class="cls-4" />
  <path
     id="path171"
     transform="translate(-38.05,-154.68)"
     d="m 122.4,288.69 c 4.21,1.67 8.42,3.36 12.6,5.16 4.18,1.8 8.33,3.64 12.44,5.62 2.06,1 4.1,2 6.13,3.05 2.03,1.05 4,2.14 6,3.28 2,1.14 4,2.32 5.92,3.6 1.92,1.28 3.86,2.62 5.74,4.08 a 43.26,43.26 0 0 1 5.37,4.95 24.48,24.48 0 0 1 2.4,3.07 c 0.38,0.54 0.7,1.18 1,1.78 a 16.44,16.44 0 0 1 0.84,2 11.45,11.45 0 0 1 -0.87,9.6 14.78,14.78 0 0 1 -2.91,3.59 22.94,22.94 0 0 1 -3.32,2.53 39.73,39.73 0 0 1 -6.88,3.4 68.66,68.66 0 0 1 -7,2.27 c -2.32,0.64 -4.65,1.17 -7,1.62 q -1.76,0.34 -3.52,0.63 c -1.2,0.19 -2.32,0.36 -3.65,0.51 h 0.45 c -8.68,1.72 -17.39,3.53 -26.06,5.4 -8.67,1.87 -17.32,3.82 -25.9,5.88 -8.58,2.06 -16.97,4.23 -25.18,6.69 -2,0.62 -4.06,1.26 -6,1.93 -1.94,0.67 -3.82,1.38 -5.31,2.09 a 6,6 0 0 0 -1.44,0.82 c 0,0 0,0 0,0 l 0.18,-0.09 a 5.27,5.27 0 0 0 1,-0.82 8.07,8.07 0 0 0 1.1,-1.33 q 0.15,-0.24 0.29,-0.49 c 0.12,-0.22 0.25,-0.48 0.36,-0.72 0.11,-0.24 0.21,-0.51 0.3,-0.77 0.09,-0.26 0.21,-0.66 0.29,-1 a 9.13,9.13 0 0 0 0.18,-1.06 10.51,10.51 0 0 0 0.07,-1.21 10.63,10.63 0 0 0 -0.29,-2.41 9.31,9.31 0 0 0 -0.36,-1.14 9.19,9.19 0 0 0 -0.38,-0.9 9,9 0 0 0 -0.48,-0.85 c -0.15,-0.25 -0.26,-0.41 -0.41,-0.61 a 9.06,9.06 0 0 0 -1.5,-1.62 c -0.15,-0.14 -0.3,-0.26 -0.46,-0.38 l -0.38,-0.27 -0.3,-0.19 -0.19,-0.12 -0.17,-0.09 h -0.08 c -0.19,-0.11 -0.07,-0.08 0.18,-0.05 0.46,0.07 1.3,0.18 2.14,0.27 l 6.32,0.51 c 0.55,0 1.13,0.1 1.65,0.13 l 1.55,0.07 3.1,0.14 c 2,0.11 4.19,0.15 6.34,0.19 2.15,0.04 4.29,0.1 6.46,0.08 h 6.49 l 6.51,-0.12 c 4.35,-0.13 8.7,-0.24 13.06,-0.46 4.36,-0.22 8.72,-0.45 13.08,-0.71 4.36,-0.26 8.72,-0.6 13.08,-0.95 4.36,-0.35 8.7,-0.75 13,-1.17 2.13,-0.23 4.32,-0.44 6.4,-0.69 1,-0.12 2.14,-0.24 3.07,-0.38 l 1.45,-0.2 c 0.24,-0.06 0.31,-0.1 0.48,-0.12 l 5.33,33.58 c -0.94,0.09 -2,0.18 -2.84,0.24 l -1.88,0.06 c -1.28,0 -2.41,0 -3.59,0.06 -2.36,0 -4.62,0 -6.93,0 q -6.86,-0.05 -13.67,-0.22 -6.81,-0.17 -13.62,-0.45 c -4.54,-0.21 -9.08,-0.41 -13.62,-0.7 -4.54,-0.29 -9.09,-0.61 -13.63,-1 l -6.83,-0.6 -6.84,-0.71 c -2.28,-0.22 -4.57,-0.52 -6.86,-0.82 -2.29,-0.3 -4.56,-0.57 -7,-1 l -3.54,-0.54 -1.77,-0.27 c -0.59,-0.09 -1.11,-0.2 -1.66,-0.31 l -6.91,-1.31 c -1.34,-0.29 -2.7,-0.6 -4.38,-1.12 a 25.21,25.21 0 0 1 -3,-1.13 l -0.46,-0.21 -0.54,-0.28 -0.56,-0.31 -0.66,-0.4 -0.32,-0.21 -0.41,-0.29 c -0.27,-0.2 -0.54,-0.41 -0.8,-0.63 a 13,13 0 0 1 -2.07,-2.23 c -0.19,-0.26 -0.34,-0.47 -0.53,-0.78 -0.19,-0.31 -0.4,-0.68 -0.57,-1 -0.17,-0.32 -0.33,-0.71 -0.48,-1.09 a 12.84,12.84 0 0 1 -0.41,-1.34 11.86,11.86 0 0 1 0,-5.5 11.48,11.48 0 0 1 0.34,-1.19 c 0.11,-0.32 0.24,-0.64 0.38,-1 0.14,-0.36 0.29,-0.63 0.44,-0.91 0.15,-0.28 0.26,-0.45 0.4,-0.67 a 12.83,12.83 0 0 1 1.58,-2 14.67,14.67 0 0 1 2.24,-1.9 c 0.33,-0.23 0.6,-0.4 0.87,-0.56 0.27,-0.16 0.52,-0.31 0.76,-0.44 a 29.46,29.46 0 0 1 4.62,-2 c 2.66,-0.9 5,-1.48 7.38,-2 2.38,-0.52 4.64,-1 6.92,-1.45 9.1,-1.71 18,-3 26.94,-4.16 8.94,-1.16 17.83,-2.2 26.73,-3.16 8.9,-0.96 17.79,-1.84 26.73,-2.65 h 0.45 c 0.93,0 2.07,-0.05 3.12,-0.11 1.05,-0.06 2.14,-0.14 3.21,-0.23 2.14,-0.19 4.27,-0.44 6.37,-0.78 a 59.26,59.26 0 0 0 6.14,-1.3 31.25,31.25 0 0 0 5.55,-2 10.74,10.74 0 0 0 3.81,-2.82 4,4 0 0 0 0.73,-1.52 4.12,4.12 0 0 0 0,-1.92 13.21,13.21 0 0 0 -2.4,-4.82 37.18,37.18 0 0 0 -4.15,-4.71 c -1.56,-1.5 -3.19,-3 -4.91,-4.34 -1.72,-1.34 -3.49,-2.73 -5.3,-4 -1.81,-1.27 -3.66,-2.57 -5.54,-3.81 -1.88,-1.24 -3.77,-2.45 -5.69,-3.63 -3.83,-2.37 -7.74,-4.64 -11.7,-6.85 -3.96,-2.21 -7.94,-4.47 -11.95,-6.58 z"
     class="cls-5" />
  <rect
     id="rect173"
     height="40.52"
     width="34.139999"
     y="196.28999"
     x="108.56"
     class="cls-4" />
  <rect
     id="rect175"
     ry="5.3000002"
     rx="5.3000002"
     height="36.889999"
     width="10.59"
     y="197.44"
     x="147.09"
     class="cls-4" />
  <rect
     id="rect177"
     ry="5.3000002"
     rx="5.3000002"
     height="41.860001"
     width="10.59"
     y="194.96001"
     x="162.06"
     class="cls-4" />
  <rect
     id="rect179"
     ry="5.3000002"
     rx="5.3000002"
     height="47.52"
     width="10.59"
     y="192.75999"
     x="177.03"
     class="cls-4" />
  <rect
     id="rect181"
     ry="5.3000002"
     rx="5.3000002"
     height="55.34"
     width="10.59"
     y="188.22"
     x="194.88"
     class="cls-4" />
  <polygon
     id="polygon183"
     points="213.93,240.29 270.02,233.83 270.02,198.72 212.59,192.11 212.59,240.29 "
     class="cls-4" />
  <text
     id="text185"
     transform="translate(322.27,248.96)"
     class="cls-6">TECH</text>
  <text
     id="text187"
     transform="translate(187.62,343.76)"
     class="cls-6">TO EMPOWER</text>
  <polygon
     id="polygon189"
     points="650.59,256.99 650.59,256.71 650.12,256.99 "
     class="cls-4" />
  <polygon
     id="polygon191"
     points="579.36,256.99 624,256.99 650.62,240.9 650.68,240.96 756.85,240.96 756.85,180.36 579.36,180.36 "
     class="cls-4" />
  <polygon
     id="polygon193"
     points="756.85,181.36 756.85,180.36 652.41,142.7 645.33,150.89 742.22,198.29 "
     class="cls-4" />
</svg>
